<?xml version="1.0" encoding="UTF-8" standalone="no"?>
<svg
   version="1.0"
   width="260.000000pt"
   height="260.000000pt"
   viewBox="0 0 260.000000 260.000000"
   preserveAspectRatio="xMidYMid meet"
   id="svg12"
   sodipodi:docname="safari-pinned-tab.svg"
   xml:space="preserve"
   inkscape:version="1.2.2 (732a01da63, 2022-12-09)"
   xmlns:inkscape="http://www.inkscape.org/namespaces/inkscape"
   xmlns:sodipodi="http://sodipodi.sourceforge.net/DTD/sodipodi-0.dtd"
   xmlns="http://www.w3.org/2000/svg"
   xmlns:svg="http://www.w3.org/2000/svg"><defs
     id="defs16"><clipPath
       clipPathUnits="userSpaceOnUse"
       id="clipPath2420"><path
         style="fill:#ffffff;stroke-width:0.107204"
         d="m 132.85645,101.69011 c -2.40504,-0.21967 -4.58509,-1.43828 -6.00301,-3.355584 -1.39326,-1.883969 -2.2113,-4.277368 -2.52683,-7.392919 -0.13768,-1.359371 -0.083,-4.19708 0.0897,-4.657339 0.0877,-0.233611 0.59193,0.561819 4.65545,7.34345 4.68743,7.822882 4.84516,8.090802 4.78496,8.128362 -0.0195,0.0122 -0.46965,-0.0175 -1.00031,-0.066 z m 1.23284,-0.005 c 0,-0.033 2.10747,-3.571906 4.68327,-7.864305 4.4455,-7.408121 4.68841,-7.788171 4.78466,-7.4858 0.1557,0.489209 0.14537,4.360709 -0.0146,5.45651 -0.50944,3.490248 -1.72456,6.14802 -3.58859,7.84915 -1.23118,1.123605 -3.08653,1.900445 -4.8476,2.029715 -0.55944,0.0411 -1.01718,0.0477 -1.01718,0.0148 z m -1.91238,-18.245766 c -0.96115,-1.561449 -1.7176,-2.887451 -1.681,-2.94667 0.0366,-0.0593 0.41385,-0.21685 0.83833,-0.3503 0.67888,-0.21344 0.98472,-0.241448 2.54064,-0.23272 1.54049,0.009 1.88651,0.0439 2.68009,0.273061 0.62331,0.17999 0.90095,0.309319 0.87869,0.409318 -0.0429,0.192691 -3.37794,5.686311 -3.45202,5.686311 -0.0314,0 -0.84359,-1.277551 -1.80473,-2.839 z"
         id="path2422" /></clipPath></defs><sodipodi:namedview
     id="namedview14"
     pagecolor="#505050"
     bordercolor="#eeeeee"
     borderopacity="1"
     inkscape:showpageshadow="0"
     inkscape:pageopacity="0"
     inkscape:pagecheckerboard="0"
     inkscape:deskcolor="#505050"
     inkscape:document-units="pt"
     showgrid="false"
     inkscape:zoom="0.68076923"
     inkscape:cx="315.08475"
     inkscape:cy="245.31073"
     inkscape:window-width="1920"
     inkscape:window-height="1027"
     inkscape:window-x="-8"
     inkscape:window-y="-8"
     inkscape:window-maximized="1"
     inkscape:current-layer="layer1" /><metadata
     id="metadata2">
Created by potrace 1.11, written by Peter Selinger 2001-2013
</metadata><g
     id="layer1"
     inkscape:label="Layer 1"
     transform="matrix(9.2048345,0,0,9.2048345,-1103.8182,-708.1051)"><path
       style="fill:#ffffff;stroke-width:0.107204"
       d="m 132.85645,101.69011 c -2.40504,-0.21967 -4.58509,-1.43828 -6.00301,-3.355584 -1.39326,-1.883969 -2.2113,-4.277368 -2.52683,-7.392919 -0.13768,-1.359371 -0.083,-4.19708 0.0897,-4.657339 0.0877,-0.233611 0.59193,0.561819 4.65545,7.34345 4.68743,7.822882 4.84516,8.090802 4.78496,8.128362 -0.0195,0.0122 -0.46965,-0.0175 -1.00031,-0.066 z m 1.23284,-0.005 c 0,-0.033 2.10747,-3.571906 4.68327,-7.864305 4.4455,-7.408121 4.68841,-7.788171 4.78466,-7.4858 0.1557,0.489209 0.14537,4.360709 -0.0146,5.45651 -0.50944,3.490248 -1.72456,6.14802 -3.58859,7.84915 -1.23118,1.123605 -3.08653,1.900445 -4.8476,2.029715 -0.55944,0.0411 -1.01718,0.0477 -1.01718,0.0148 z m -1.91238,-18.245766 c -0.96115,-1.561449 -1.7176,-2.887451 -1.681,-2.94667 0.0366,-0.0593 0.41385,-0.21685 0.83833,-0.3503 0.67888,-0.21344 0.98472,-0.241448 2.54064,-0.23272 1.54049,0.009 1.88651,0.0439 2.68009,0.273061 0.62331,0.17999 0.90095,0.309319 0.87869,0.409318 -0.0429,0.192691 -3.37794,5.686311 -3.45202,5.686311 -0.0314,0 -0.84359,-1.277551 -1.80473,-2.839 z"
       id="path2422-5" /><rect
       style="opacity:1;fill:#ffffff;fill-opacity:0;stroke-width:0.166542;stroke-linecap:round;-inkscape-stroke:none;paint-order:markers stroke fill;stop-color:#000000"
       id="rect918-0"
       width="25"
       height="25"
       x="121.54894"
       y="78.022522"
       inkscape:export-filename="favicon.png"
       inkscape:export-xdpi="48.77"
       inkscape:export-ydpi="48.77" /></g></svg>
