<svg enable-background="new 0 0 35 35" version="1.1" viewBox="0 0 35 35" xmlns="http://www.w3.org/2000/svg">
 <style type="text/css">.st0{fill:#BBBBBB;}
	.st1{fill:none;stroke:#FFFFFF;stroke-width:2;stroke-linecap:round;stroke-miterlimit:10;}</style>
 <path class="st0" d="m17.5 0a17.5 17.5 0 0 0-17.5 17.5 17.5 17.5 0 0 0 17.5 17.5 17.5 17.5 0 0 0 17.5-17.5 17.5 17.5 0 0 0-17.5-17.5zm-1.7402 10.631a1 1 0 0 1 0.70703 0.29297l6.4473 6.4453-6.707 6.707a1 1 0 0 1-1.4141 0 1 1 0 0 1 0-1.4141l5.293-5.293-5.0332-5.0312a1 1 0 0 1 0-1.4141 1 1 0 0 1 0.70703-0.29297z"/>
</svg>
