<svg enable-background="new 0 0 70 70" version="1.1" viewBox="0 0 70 70" xmlns="http://www.w3.org/2000/svg">
	<style type="text/css">.st0{fill:#FFFFFF;}
	.st1{fill:#1C1E1D;}</style>
	<path class="st1" d="m23.87 14.38v1.658h11.6c4.03 0 7.67 0.8215 9.91 2.771 1.488 1.296 2.716 2.99 3.375 5.016-0.6695-1.785-1.866-2.905-2.896-3.727-1.69-1.29-3.61-2.32-9.1-2.32h-9.119v1.611s4.09-0.05 8.91 0c4.67 0.05 6.379 0.5802 7.959 1.74 2 1.48 3.27 3.319 3.27 5.879 0 1.995-0.8212 3.511-2.199 4.809-0.1544-0.06018-0.3104-0.12-0.4688-0.1758 0.04588-0.0249 0.0928-0.04668 0.1387-0.07227 1.48-0.82 2.48-2.501 2.48-4.641 0.01-2.42-1.34-3.849-2.68-4.689-1.27-0.79-2.371-1.32-7.621-1.32h-6.57v1.051h6.381c4.64 0 6.38 0.8202 6.93 1.16 1.05 0.63 2.43 1.689 2.43 3.799 0 1.34-0.7905 3.061-1.98 3.721-0.3139 0.1773-0.7134 0.3468-1.193 0.502-1.621-0.3867-3.418-0.582-5.396-0.582h-7.91v1.24h-13.42v1.049h21.46c1.768 0 3.028-0.0877 4.023-0.2461 0.6247 0.1183 1.227 0.2649 1.799 0.4414-0.8601 0.5066-1.85 0.8008-2.799 0.9746-0.6309-0.03788-1.316-0.05859-2.074-0.05859h-12.39v1.609s1.94-0.01345 4.469-0.01953v0.3594s3.111 0.05 5.061 0c1.741-0.04324 3.203-0.1119 4.488-0.2871 1.33 0.0658 2.364 0.1907 3.207 0.3809-1.133 0.5768-2.488 1.001-3.955 1.289-0.07925-2.52e-4 -0.1395-0.001953-0.2207-0.001953h-8.33v0.4688h-9.83v1.66h13.42c2.755 0 5.181-0.3332 7.277-0.9941 2.667 0.2255 3.829 0.7556 4.232 1.004 1.03 0.61 2.432 1.61 2.432 3.67 0 1.32-0.7905 2.95-1.98 3.59-1.08 0.58-3.06 1.111-6.51 1.111h-21.43v1.029h21.46c4.19 0 5.62-0.4502 7.09-1.24 1.48-0.79 2.451-2.4 2.451-4.48 0.03-2.32-1.31-3.689-2.66-4.529-0.7351-0.4399-1.42-0.8017-2.879-1.029 0.5061-0.2482 0.9851-0.5227 1.441-0.8203 0.3187 0.1723 0.6143 0.3657 0.9062 0.5801 2 1.48 3.271 3.319 3.271 5.879 0 2.48-1.271 4.221-3.301 5.721-2.06 1.53-5.22 1.53-6.51 1.58h-6.781v1.609s3.141 0.05 5.061 0c4.43-0.11 7.07-0.3695 9.52-2.189 2.261-1.689 3.478-3.905 3.508-6.695 3.42e-4 0.03544 0.003906 0.0699 0.003906 0.1055 0 3.43-1.451 5.929-3.771 7.859s-6.46 2.771-10.6 2.771h-13.31v1.658h13.42c4.98 0 8.891-1.078 11.71-3.238 2.82-2.16 4.221-5.22 4.221-9.15-0.03-3.98-1.37-7.071-4.09-9.311-0.05714-0.04705-0.1178-0.09066-0.1758-0.1367 1.274-1.848 1.926-4.099 1.926-6.744-0.01-4.01-1.382-7.099-4.092-9.309-2.72-2.24-6.43-3.35-11.18-3.35h-11.82zm0.5 6.779v0.7402h4.092v-0.7402h-4.092zm1.111 3.27v0.8398h15.45v-0.8398h-15.45zm23.8 2.607c3.23e-4 0.03476 0.001953 0.06862 0.001953 0.1035 0 2.243-0.6363 4.084-1.715 5.633-0.1462-0.0857-0.2966-0.1674-0.4473-0.248 1.393-1.497 2.136-3.319 2.16-5.488zm-27.73 0.02344v0.8496h9.309v-0.8496h-9.309zm11.66 0v0.8496h7.43v-0.8496h-7.43zm12.54 6.684c0.2434 0.1178 0.4767 0.2424 0.7031 0.375-0.2466 0.2542-0.5073 0.4997-0.7793 0.7363-0.3446-0.1293-0.7181-0.2484-1.135-0.3535 0.413-0.2174 0.8149-0.465 1.211-0.7578zm2.137 1.424c1.365 1.22 2.506 2.802 3.156 4.676-0.6742-1.683-1.817-2.767-2.832-3.555-0.2769-0.2081-0.5632-0.4089-0.8672-0.6016 0.189-0.1678 0.3686-0.3422 0.543-0.5195zm-23.94 5.713v0.8984h3.432v-0.8984h-3.432zm5.41 0v0.8984h11.63v-0.8984h-11.63zm-7.57 3.189v0.9004h10.47v-0.9004h-10.47zm12.37 0.08008v0.7598h6.75v-0.7598h-6.75zm-12.37 6.799v1.061h9.83v-1.061h-9.83zm-2.43 3.012v1.549h2.461v-1.549h-2.461z"/>
</svg>
