<svg version="1.1" viewBox="0 0 350 120.4" xmlns="http://www.w3.org/2000/svg">
 <style type="text/css">.st0{fill:#00367B;}</style>
 <g transform="translate(220.34 -304.85)">
  <g>
   <path class="st0" d="m20.7 1.8v99.3h58.6v17.5h-79.3v-116.8z"/>
   <path class="st0" d="m92.7 1.8h20.8v116.8h-20.8z"/>
   <path class="st0" d="m223.1 13.1-11.1 15.9c-8.6-7.6-19-10.2-28.7-10.2-18 0-31.1 6.6-31.1 36.3v12c0 25.5 13.5 34.5 32.4 34.5 7.6 0 13.3-1.1 19.1-3.4v-27.9h-24.5v-17.5h45v56.9c-10.4 7-26.7 10.7-40.7 10.7-29.7 0-52.2-14.3-52.2-49.1v-20.9c0-35 21.9-50.4 51.9-50.4 13.9 0 27.9 3.4 39.9 13.1z"/>
   <path class="st0" d="m524.1 72.3 28.2 46.4h-24.3l-17.7-32.6-17.8 32.6h-23l28.8-46.4-27.7-42.9h24.4l16.7 29.8 17.2-29.8h22.5z"/>
   <polygon class="st0" points="592.1 1.8 559.2 20.1 569.2 36.9 589.7 25.1 589.7 118.6 610.4 118.6 610.4 1.8"/>
   <path class="st0" d="m462.8 110.4c-8.6 5.8-19.9 9.6-36.6 9.6-20.6 0-40.8-9.7-40.8-41.7v-9.3c0-29 18-41.6 40.7-41.6s39.1 13.1 39.1 39.2v14.7h-59c0 14.3 7 21.6 21.2 21.6 10.5 0 18.2-2.1 27.1-7.3zm-18.5-44.4v-3.9c0-9.6-4.4-17.8-18.6-17.8-14.3 0-19.6 8.3-19.6 18.3v3.4z"/>
   <polygon class="st0" points="298.7 118.6 299.9 118.6 299.9 37 346 118.6 349 118.6 369.8 118.6 369.8 1.8 350.3 1.8 349 1.8 349 83.5 303 1.8 299.9 1.8 279.2 1.8 279.2 118.6"/>
  </g>
 </g>
 <g stroke-width=".28552">
  <path d="m43.871 93.033c-0.1329-0.34632 8.57e-4 -1.3314 0.29747-2.189 0.41289-1.1942 0.98476-1.839 2.4426-2.7539 2.657-1.6675 4.1351-3.2148 4.7203-4.9415 0.59723-1.7623 1.0283-16.757 0.62198-21.635l-0.26861-3.2246-2.9175-0.1106c-2.6643-0.101-2.9277-0.18239-3.0353-0.93768-0.24262-1.7036 0.68031-3.9376 1.9454-4.709 1.1016-0.67166 1.9544-0.74274 8.927-0.74403l7.7091-0.0014v1.3447c0 2.1177-0.88207 3.775-2.3901 4.4905-0.7379 0.35016-1.5299 0.63665-1.76 0.63665-0.29359 0-0.41834 3.0444-0.41834 10.209 0 5.7231-0.18181 11.192-0.41377 12.447-1.1271 6.0969-4.789 9.7731-11.904 11.95-3.1424 0.96157-3.2504 0.9667-3.5565 0.1689zm-17.056-7.2498c-9.661-1.2814-16.193-10.231-14.672-20.102 0.75747-4.9149 3.8185-9.7768 7.6968-12.225 6.5419-4.1297 15.482-3.1672 21.555 2.3207l2.0167 1.8223-0.82561 0.87882c-1.0952 1.1658-3.0487 2.0638-4.4894 2.0638-0.64164 0-2.2432-0.58668-3.5591-1.3037-3.0565-1.6656-5.2901-2.0049-8.0041-1.2159-7.2166 2.0979-9.8766 11.765-4.8185 17.511 2.3257 2.6421 4.1091 3.4551 7.575 3.453 2.5609-0.0014 3.1468-0.15176 5.6829-1.4576 2.2383-1.1525 3.1024-1.4114 4.1459-1.2421 1.3762 0.22332 4.257 1.9123 4.257 2.4958 0 0.73771-4.3657 4.2665-6.5941 5.3301-1.3019 0.62133-3.4773 1.3098-4.8342 1.53-2.4832 0.40288-3.0388 0.41809-5.132 0.14047zm232.08-0.16359c-11.051-1.8356-17.186-14.352-12.239-24.972 1.1992-2.5747 3.9509-5.7808 6.1673-7.1857 3.5616-2.2577 9.5557-3.1561 13.668-2.0487 2.6218 0.70599 5.7269 2.4293 7.9042 4.3869l2.0015 1.7995-0.82561 0.87882c-1.0952 1.1658-3.0487 2.0638-4.4894 2.0638-0.64164 0-2.2432-0.58668-3.5591-1.3037-3.0477-1.6608-5.2915-2.0045-7.9812-1.2226-7.2094 2.0958-9.8874 11.785-4.8415 17.518 2.3244 2.6406 4.1065 3.4528 7.5995 3.4635 2.5982 8e-3 3.1461-0.13073 5.605-1.4188 3.1385-1.6441 3.8122-1.7165 6.0212-0.64717 2.7622 1.3372 2.8198 1.6571 0.68914 3.8286-2.2973 2.3412-6.3107 4.3729-9.6749 4.8975-2.803 0.43709-3.2026 0.43461-6.0452-0.03753zm-100.55-16.16v-15.448l1.1128-1.1128c1.0043-1.0043 1.3568-1.1128 3.6166-1.1128h2.5038v28.126l1.0469-0.54612c0.77518-0.40438 2.5538-0.54673 6.8525-0.54847l5.8056-0.0023v1.9328c0 1.6286-0.17512 2.1079-1.1128 3.0456l-1.1128 1.1128h-18.713zm26.268-3.521v-12.497l0.88111-0.82776c0.7086-0.6657 1.3421-0.82775 3.2359-0.82775h2.3548v12.548c0 12.418-9e-3 12.556-0.83317 13.324-0.65602 0.61117-1.3441 0.77622-3.2359 0.77622h-2.4028zm15.034 0.55066c-3.9816-10.635-4.4514-12.137-4.0622-12.991 0.49979-1.0969 1.8174-1.7119 3.6678-1.7119h1.2653l2.5591 6.9086c1.4075 3.7997 2.8131 7.6543 3.1237 8.5657 0.31054 0.91138 0.67699 1.6561 0.81435 1.655 0.13736-0.0011 1.5336-3.5243 3.1027-7.8294s3.1689-8.1133 3.5551-8.4628c0.48391-0.43793 1.5824-0.6799 3.5341-0.77846l2.832-0.14301-0.83097 2.2311c-6.0778 16.319-8.7679 23.203-9.2592 23.694-0.38352 0.38352-1.5113 0.64454-3.1961 0.73974l-2.6035 0.14711zm22.818 11.44c-0.10672-0.2781-0.14417-5.9468-0.0832-12.597l0.11081-12.091 0.89874-0.72735c0.81737-0.66149 1.5843-0.72734 8.4705-0.72734h7.5718v1.6618c0 1.1047-0.26449 1.998-0.78903 2.6649-0.77016 0.9791-0.89306 1.0031-5.1394 1.0031h-4.3504l-5.7e-4 2.7601-5.7e-4 2.7601 9.5185-0.25244v1.9069c0 1.6066-0.15796 2.0312-1.0031 2.6959-0.86083 0.67713-1.5357 0.78902-4.7587 0.78902h-3.7556v3.1217c0 2.428 0.10152 3.0202 0.45684 2.6649 0.30579-0.3058 2.005-0.45684 5.1394-0.45684h4.6826v1.7304c0 1.3297-0.21643 1.9469-0.93444 2.6649-0.92848 0.92848-0.98199 0.93444-8.3873 0.93444-5.8451 0-7.4947-0.10908-7.6469-0.50564zm58.084-11.884v-12.39l0.95258-0.95258c0.84535-0.84535 1.2203-0.93983 3.3311-0.83927l2.3785 0.11332v25.004l-0.89874 0.72741c-0.67511 0.54641-1.504 0.72741-3.3311 0.72741h-2.4324zm17.512 1.7304v-10.66h-6.8526v-1.8371c0-1.4281 0.19618-2.0214 0.88111-2.6649 0.85451-0.80277 1.159-0.82775 10.088-0.82775h9.2073v1.9035c0 2.7895-0.77828 3.4263-4.1876 3.4263h-2.6649v9.8833c0 9.6769-0.0174 9.8995-0.83318 10.66-0.65602 0.61117-1.3441 0.77622-3.236 0.77622h-2.4027zm22.842 5.4055v-5.254l-3.9973-6.7867c-2.1985-3.7327-3.9973-7.1588-3.9973-7.6136 0-1.3161 0.75824-1.7405 3.1093-1.7405h2.1956l2.1631 3.7118c1.1897 2.0415 2.5435 4.3661 3.0085 5.1657l0.84541 1.4539 2.4179-4.3091c3.3231-5.9223 3.4398-6.0223 7.0317-6.0223 2.2394 0 2.8692 0.1149 2.7227 0.4967-0.10485 0.27319-2.246 3.8861-4.7582 8.0287l-4.5675 7.532-0.0492 4.6295c-0.0595 5.5986-0.29609 5.9619-3.8825 5.9619h-2.242z"/>
  <path d="m80.874 53.915c-8.1814-1.585-17.489-6.4529-22.575-11.807-9.1901-9.6748-8.4356-23.881 1.8128-34.133 9.2517-9.2545 21.001-7.9923 28.119 3.0206 3.0745 4.7569 6.629 14.655 7.865 21.901 0.75409 4.4211 0.74876 11.213-0.01111 14.146-0.84236 3.2517-2.0399 4.8638-4.5116 6.073-2.5657 1.2553-6.7359 1.5665-10.7 0.79863z" fill="#4d4d4d"/>
  <path d="m126.03 86.603c-3.3537-0.9256-5.7439-2.4581-9.1772-5.8839-6.8143-6.7994-13.312-18.904-15.065-28.064-1.079-5.6393-0.50763-8.6093 2.1583-11.22 2.7011-2.6448 5.8178-3.5461 12.146-3.5122 4.7583 0.02547 11.802 1.045 11.802 1.7082 0 0.18106 0.23964 0.23724 0.53254 0.12484 0.29289-0.1124 0.64736-0.01856 0.7877 0.20851 0.14034 0.22707 0.39675 0.32535 0.5698 0.2184 0.421-0.26019 4.9784 1.4728 7.8177 2.9727 4.0762 2.1534 9.9854 8.9175 10.192 11.667 0.0319 0.4235 0.1656 0.77001 0.29711 0.77001 0.30118 0 1.0393 3.3387 1.3465 6.0912 0.30022 2.6891-0.64305 8.1742-1.9631 11.415-2.1815 5.3561-6.0641 10.026-10.144 12.2-3.3182 1.7686-7.7585 2.2807-11.3 1.3032z" fill="#666"/>
  <path d="m79.511 117.99c-12.652-1.0694-19.007-11.326-14.956-24.139 1.0681-3.3788 4.9384-10.928 7.8066-15.228 3.8595-5.7856 9.4383-11.378 13.227-13.26 4.7933-2.381 8.1649-1.7615 12.045 2.213 4.6196 4.7317 8.113 13.031 9.5181 22.612 0.7133 4.864 0.35345 8.8377-1.1659 12.874-3.8016 10.1-14.205 15.966-26.475 14.929z" fill="#999"/>
 </g>
</svg>
