<?xml version="1.0" encoding="UTF-8" standalone="no"?>
<!-- Generator: Adobe Illustrator 19.0.0, SVG Export Plug-In . SVG Version: 6.00 Build 0)  -->

<svg
   version="1.0"
   id="Layer_1"
   x="0px"
   y="0px"
   width="400"
   height="394"
   viewBox="0 0 400 393.99998"
   xml:space="preserve"
   xmlns:xlink="http://www.w3.org/1999/xlink"
   xmlns="http://www.w3.org/2000/svg"
   xmlns:svg="http://www.w3.org/2000/svg"><defs
   id="defs264">
	<defs
   id="defs1">
		<rect
   id="SVGID_1_"
   width="1920"
   height="4192.2002"
   x="0"
   y="0" />
	</defs>
	<clipPath
   id="SVGID_2_">
		<use
   xlink:href="#SVGID_1_"
   style="overflow:visible"
   id="use1" />
	</clipPath>
	
	
	
	
	
	
	
	
	
	
	
	
	
	
	
	
	
	
	
	
	
	
	
	
	
	
	
	
	
	
	
	

		<defs
   id="defs212">
			<rect
   id="SVGID_127_"
   x="1432.7"
   y="2467.8999"
   width="172.7"
   height="172.7" />
		</defs>
		<clipPath
   id="SVGID_128_">
			<use
   xlink:href="#SVGID_127_"
   style="overflow:visible"
   id="use212" />
		</clipPath>
		
		
		
		
		
		
		
		
		
		
		
		
		
		
		
		
		
		
		
		
		
		
		
		
		
		
		
		
		
		
		
		
		
		
		
	
		<defs
   id="defs147">
			<rect
   id="SVGID_108_"
   x="1340"
   y="2375.2"
   width="358"
   height="358" />
		</defs>
		<clipPath
   id="SVGID_109_">
			<use
   xlink:href="#SVGID_108_"
   style="overflow:visible"
   id="use147" />
		</clipPath>
		
			<linearGradient
   id="SVGID_110_"
   gradientUnits="userSpaceOnUse"
   x1="0"
   y1="4192.2002"
   x2="1"
   y2="4192.2002"
   gradientTransform="matrix(0,358,-358,0,1502326.6,2375.2002)">
			<stop
   offset="0"
   style="stop-color:#EFEFEF"
   id="stop147" />
			<stop
   offset="1"
   style="stop-color:#FFFFFF"
   id="stop148" />
			<stop
   offset="1"
   style="stop-color:#757880"
   id="stop149" />
		</linearGradient>
		
	
		<defs
   id="defs197">
			<rect
   id="SVGID_125_"
   x="1412"
   y="3664.2"
   width="172.10001"
   height="172.10001" />
		</defs>
		<clipPath
   id="SVGID_126_">
			<use
   xlink:href="#SVGID_125_"
   style="overflow:visible"
   id="use197" />
		</clipPath>
		
		
		
		
		
		
		
		
		
		
		
		
		
		
		
	
		<defs
   id="defs153">
			<rect
   id="SVGID_114_"
   x="1319"
   y="3571.2"
   width="358"
   height="358" />
		</defs>
		<clipPath
   id="SVGID_115_">
			<use
   xlink:href="#SVGID_114_"
   style="overflow:visible"
   id="use153" />
		</clipPath>
		
			<linearGradient
   id="SVGID_116_"
   gradientUnits="userSpaceOnUse"
   x1="0"
   y1="4192.2002"
   x2="1"
   y2="4192.2002"
   gradientTransform="matrix(0,358,-358,0,1502305.6,3571.2002)">
			<stop
   offset="0"
   style="stop-color:#EFEFEF"
   id="stop153" />
			<stop
   offset="1"
   style="stop-color:#FFFFFF"
   id="stop154" />
			<stop
   offset="1"
   style="stop-color:#757880"
   id="stop155" />
		</linearGradient>
		
	
		<defs
   id="defs150">
			<rect
   id="SVGID_111_"
   x="192"
   y="2987.2"
   width="358"
   height="358" />
		</defs>
		<clipPath
   id="SVGID_112_">
			<use
   xlink:href="#SVGID_111_"
   style="overflow:visible"
   id="use150" />
		</clipPath>
		
			<linearGradient
   id="SVGID_113_"
   gradientUnits="userSpaceOnUse"
   x1="0"
   y1="4192.2002"
   x2="1"
   y2="4192.2002"
   gradientTransform="matrix(0,358,-358,0,1501178.6,2987.2002)">
			<stop
   offset="0"
   style="stop-color:#EBF1FF"
   id="stop150" />
			<stop
   offset="1"
   style="stop-color:#FFFFFF"
   id="stop151" />
			<stop
   offset="1"
   style="stop-color:#757880"
   id="stop152" />
		</linearGradient>
		
	
		<defs
   id="defs188">
			<rect
   id="SVGID_123_"
   x="284.70001"
   y="3079.8999"
   width="172.7"
   height="172.7" />
		</defs>
		<clipPath
   id="SVGID_124_">
			<use
   xlink:href="#SVGID_123_"
   style="overflow:visible"
   id="use188" />
		</clipPath>
		
		
		
		
		
		
		
		
		
	
		<defs
   id="defs173">
			<rect
   id="SVGID_121_"
   x="277.20001"
   y="1851.4"
   width="172.7"
   height="172.7" />
		</defs>
		<clipPath
   id="SVGID_122_">
			<use
   xlink:href="#SVGID_121_"
   style="overflow:visible"
   id="use173" />
		</clipPath>
		
		
		
		
		
		
		
		
		
		
		
		
		
		
		
		
		
		
		
		
		
	
		<defs
   id="defs144">
			<rect
   id="SVGID_105_"
   x="182"
   y="1763.2"
   width="358"
   height="358" />
		</defs>
		<clipPath
   id="SVGID_106_">
			<use
   xlink:href="#SVGID_105_"
   style="overflow:visible"
   id="use144" />
		</clipPath>
		
			<linearGradient
   id="SVGID_107_"
   gradientUnits="userSpaceOnUse"
   x1="0"
   y1="4192.2002"
   x2="1"
   y2="4192.2002"
   gradientTransform="matrix(0,358,-358,0,1501168.6,1763.2002)">
			<stop
   offset="0"
   style="stop-color:#EBF1FF"
   id="stop144" />
			<stop
   offset="1"
   style="stop-color:#FFFFFF"
   id="stop145" />
			<stop
   offset="1"
   style="stop-color:#757880"
   id="stop146" />
		</linearGradient>
		
	
		<defs
   id="defs141">
			<rect
   id="SVGID_102_"
   x="1379"
   y="1141.2"
   width="358"
   height="358" />
		</defs>
		<clipPath
   id="SVGID_103_">
			<use
   xlink:href="#SVGID_102_"
   style="overflow:visible"
   id="use141" />
		</clipPath>
		
			<linearGradient
   id="SVGID_104_"
   gradientUnits="userSpaceOnUse"
   x1="9.094947e-13"
   y1="4192.2002"
   x2="1"
   y2="4192.2002"
   gradientTransform="matrix(0,358,-358,0,1502365.6,1141.2002)">
			<stop
   offset="0"
   style="stop-color:#EFEFEF"
   id="stop141" />
			<stop
   offset="1"
   style="stop-color:#FFFFFF"
   id="stop142" />
			<stop
   offset="1"
   style="stop-color:#757880"
   id="stop143" />
		</linearGradient>
		
	
		<defs
   id="defs162">
			<rect
   id="SVGID_119_"
   x="1471.7"
   y="1233.9"
   width="172.7"
   height="172.7" />
		</defs>
		<clipPath
   id="SVGID_120_">
			<use
   xlink:href="#SVGID_119_"
   style="overflow:visible"
   id="use162" />
		</clipPath>
		
		
		
		
		
		
		
		
		
		
		
		
		
		
		
		
	
		<defs
   id="defs156">
			<rect
   id="SVGID_117_"
   x="318.10001"
   y="655.29999"
   width="166.3"
   height="166.3" />
		</defs>
		<clipPath
   id="SVGID_118_">
			<use
   xlink:href="#SVGID_117_"
   style="overflow:visible"
   id="use156" />
		</clipPath>
		
		
		
		
		
		
		
	
		<defs
   id="defs138">
			<rect
   id="SVGID_99_"
   x="222"
   y="559.20001"
   width="358"
   height="358" />
		</defs>
		<clipPath
   id="SVGID_100_">
			<use
   xlink:href="#SVGID_99_"
   style="overflow:visible"
   id="use138" />
		</clipPath>
		
			<linearGradient
   id="SVGID_101_"
   gradientUnits="userSpaceOnUse"
   x1="0"
   y1="4192.2002"
   x2="1"
   y2="4192.2002"
   gradientTransform="matrix(0,358,-358,0,1501208.6,559.2002)">
			<stop
   offset="0"
   style="stop-color:#EBF1FF"
   id="stop138" />
			<stop
   offset="1"
   style="stop-color:#FFFFFF"
   id="stop139" />
			<stop
   offset="1"
   style="stop-color:#757880"
   id="stop140" />
		</linearGradient>
		
	</defs>
<style
   type="text/css"
   id="style1">
	.st0{clip-path:url(#SVGID_2_);fill:#FFFFFF;}
	.st1{clip-path:url(#SVGID_2_);}
	.st2{clip-path:url(#SVGID_4_);enable-background:new    ;}
	.st3{clip-path:url(#SVGID_6_);}
	.st4{clip-path:url(#SVGID_10_);enable-background:new    ;}
	.st5{clip-path:url(#SVGID_12_);enable-background:new    ;}
	.st6{clip-path:url(#SVGID_14_);}
	.st7{font-family:'Helvetica-Light';}
	.st8{font-size:40px;}
	.st9{clip-path:url(#SVGID_16_);}
	.st10{clip-path:url(#SVGID_18_);}
	.st11{clip-path:url(#SVGID_20_);}
	.st12{clip-path:url(#SVGID_22_);enable-background:new    ;}
	.st13{clip-path:url(#SVGID_24_);}
	.st14{clip-path:url(#SVGID_26_);}
	.st15{clip-path:url(#SVGID_28_);}
	.st16{clip-path:url(#SVGID_30_);}
	.st17{clip-path:url(#SVGID_32_);enable-background:new    ;}
	.st18{clip-path:url(#SVGID_34_);}
	.st19{clip-path:url(#SVGID_36_);}
	.st20{clip-path:url(#SVGID_38_);}
	.st21{clip-path:url(#SVGID_40_);}
	.st22{clip-path:url(#SVGID_42_);}
	.st23{clip-path:url(#SVGID_44_);enable-background:new    ;}
	.st24{clip-path:url(#SVGID_46_);}
	.st25{clip-path:url(#SVGID_48_);}
	.st26{clip-path:url(#SVGID_50_);}
	.st27{clip-path:url(#SVGID_52_);}
	.st28{clip-path:url(#SVGID_54_);}
	.st29{clip-path:url(#SVGID_56_);enable-background:new    ;}
	.st30{clip-path:url(#SVGID_58_);}
	.st31{clip-path:url(#SVGID_60_);}
	.st32{clip-path:url(#SVGID_62_);}
	.st33{clip-path:url(#SVGID_64_);}
	.st34{clip-path:url(#SVGID_66_);}
	.st35{clip-path:url(#SVGID_68_);enable-background:new    ;}
	.st36{clip-path:url(#SVGID_70_);}
	.st37{clip-path:url(#SVGID_72_);}
	.st38{clip-path:url(#SVGID_74_);}
	.st39{clip-path:url(#SVGID_76_);enable-background:new    ;}
	.st40{clip-path:url(#SVGID_78_);}
	.st41{fill:#376CFB;}
	.st42{font-family:'Helvetica-Bold';}
	.st43{font-size:55px;}
	.st44{clip-path:url(#SVGID_80_);enable-background:new    ;}
	.st45{clip-path:url(#SVGID_82_);}
	.st46{clip-path:url(#SVGID_84_);enable-background:new    ;}
	.st47{clip-path:url(#SVGID_86_);}
	.st48{clip-path:url(#SVGID_88_);enable-background:new    ;}
	.st49{clip-path:url(#SVGID_90_);}
	.st50{clip-path:url(#SVGID_92_);enable-background:new    ;}
	.st51{clip-path:url(#SVGID_94_);}
	.st52{letter-spacing:-4;}
	.st53{clip-path:url(#SVGID_96_);enable-background:new    ;}
	.st54{clip-path:url(#SVGID_98_);}
	.st55{clip-path:url(#SVGID_2_);fill:none;stroke:#779BF0;stroke-dasharray:6,6;}
	.st56{clip-path:url(#SVGID_2_);fill:none;stroke:#000000;stroke-dasharray:6,6;}
	.st57{clip-path:url(#SVGID_100_);fill:url(#SVGID_101_);}
	.st58{clip-path:url(#SVGID_103_);fill:url(#SVGID_104_);}
	.st59{clip-path:url(#SVGID_106_);fill:url(#SVGID_107_);}
	.st60{clip-path:url(#SVGID_109_);fill:url(#SVGID_110_);}
	.st61{clip-path:url(#SVGID_112_);fill:url(#SVGID_113_);}
	.st62{clip-path:url(#SVGID_115_);fill:url(#SVGID_116_);}
	.st63{clip-path:url(#SVGID_118_);fill:#E6ECFF;}
	.st64{clip-path:url(#SVGID_118_);fill:#D0DBF7;}
	.st65{clip-path:url(#SVGID_118_);fill:#BAC7E5;}
	.st66{clip-path:url(#SVGID_118_);fill:#3C75F4;}
	.st67{clip-path:url(#SVGID_118_);fill:#779BF0;}
	.st68{clip-path:url(#SVGID_2_);fill:#D0DBF7;}
	.st69{clip-path:url(#SVGID_120_);fill:#BAC7E5;}
	.st70{clip-path:url(#SVGID_120_);fill:#E6ECFE;}
	.st71{clip-path:url(#SVGID_120_);fill:#779BF0;}
	.st72{clip-path:url(#SVGID_120_);fill:#D0DBF7;}
	.st73{clip-path:url(#SVGID_120_);fill:#3C75F4;}
	.st74{clip-path:url(#SVGID_120_);fill:#E6ECFF;}
	.st75{clip-path:url(#SVGID_2_);fill:#BAC7E5;}
	.st76{clip-path:url(#SVGID_122_);fill:#D0DBF7;}
	.st77{clip-path:url(#SVGID_122_);fill:#E6ECFE;}
	.st78{clip-path:url(#SVGID_122_);fill:#779BF0;}
	.st79{clip-path:url(#SVGID_122_);fill:#4294FF;}
	.st80{clip-path:url(#SVGID_122_);fill:#376CFB;}
	.st81{clip-path:url(#SVGID_122_);fill:#3C75F4;}
	.st82{clip-path:url(#SVGID_124_);fill:#D0DBF7;}
	.st83{clip-path:url(#SVGID_124_);fill:#E6ECFF;}
	.st84{clip-path:url(#SVGID_124_);fill:#779BF0;}
	.st85{clip-path:url(#SVGID_124_);fill:#E6ECFE;}
	.st86{clip-path:url(#SVGID_124_);fill:#3C75F4;}
	.st87{clip-path:url(#SVGID_126_);fill:#E6ECFF;}
	.st88{clip-path:url(#SVGID_126_);fill:#3C75F4;}
	.st89{clip-path:url(#SVGID_126_);fill:#779BF0;}
	.st90{clip-path:url(#SVGID_126_);fill:#D0DBF7;}
	.st91{clip-path:url(#SVGID_128_);fill:#BAC7E5;}
	.st92{clip-path:url(#SVGID_128_);fill:#D0DBF7;}
	.st93{clip-path:url(#SVGID_128_);fill:#779BF0;}
	.st94{clip-path:url(#SVGID_128_);fill:#E6ECFE;}
	.st95{clip-path:url(#SVGID_128_);fill:#3C75F4;}
	.st96{clip-path:url(#SVGID_128_);fill:#E6ECFF;}
	.st97{clip-path:url(#SVGID_130_);}
	.st98{clip-path:url(#SVGID_134_);enable-background:new    ;}
	.st99{clip-path:url(#SVGID_136_);enable-background:new    ;}
	.st100{clip-path:url(#SVGID_138_);}
	.st101{fill:#FFFFFF;}
	.st102{font-size:50px;}
	.st103{letter-spacing:-1;}
	.st104{letter-spacing:-3;}
</style>

		
	<g
   id="g275"><rect
     x="190.5"
     y="527.70001"
     class="st55"
     width="357"
     height="357"
     clip-path="url(#SVGID_2_)"
     id="rect133"
     transform="translate(-188,-525.20001)" /><rect
     x="222"
     y="559.20001"
     class="st57"
     width="358"
     height="358"
     clip-path="url(#SVGID_100_)"
     id="rect140"
     style="fill:url(#SVGID_101_)"
     transform="translate(-188,-525.20001)" /><rect
     x="222.5"
     y="559.70001"
     class="st55"
     width="357"
     height="357"
     clip-path="url(#SVGID_2_)"
     id="rect141"
     transform="translate(-188,-525.20001)" /><path
     class="st63"
     d="m 480.1,720.9 c -2.7,-2.7 -6.4,-4.2 -10.2,-4.2 H 318.1 v 90.4 c 0,8 6.5,14.5 14.5,14.5 v 0 h 137.3 c 8,0 14.5,-6.5 14.5,-14.5 v 0 -75.9 c -0.1,-3.9 -1.6,-7.5 -4.3,-10.3"
     clip-path="url(#SVGID_118_)"
     id="path156"
     transform="translate(-188,-525.20001)" /><path
     class="st64"
     d="m 401.2,716.7 h -83.1 v -14.5 c 0,-4 3.2,-7.2 7.2,-7.2 h 51.2 c 1.9,0 3.8,0.8 5.1,2.1 z"
     clip-path="url(#SVGID_118_)"
     id="path157"
     transform="translate(-188,-525.20001)" /><path
     class="st65"
     d="m 455.4,684.2 v 32.5 h -54.2 l -19.6,-19.6 c -1.4,-1.4 -3.2,-2.1 -5.1,-2.1 H 347 v -39.8 h 79.5 v 28.9 h 28.9 z"
     clip-path="url(#SVGID_118_)"
     id="path158"
     transform="translate(-188,-525.20001)" /><polygon
     class="st64"
     points="455.4,684.2 426.5,684.2 426.5,655.3 "
     clip-path="url(#SVGID_118_)"
     id="polygon158"
     transform="translate(-188,-525.20001)" /><polygon
     class="st66"
     points="401.2,805.3 432.8,792.5 432.8,745.7 401.2,758.5 "
     clip-path="url(#SVGID_118_)"
     id="polygon159"
     transform="translate(-188,-525.20001)" /><polygon
     class="st67"
     points="369.6,792.5 401.2,805.3 401.2,758.5 369.6,745.7 "
     clip-path="url(#SVGID_118_)"
     id="polygon160"
     transform="translate(-188,-525.20001)" /><polygon
     class="st64"
     points="401.2,758.5 432.8,745.7 401.2,733 369.6,745.7 "
     clip-path="url(#SVGID_118_)"
     id="polygon161"
     transform="translate(-188,-525.20001)" /></g>
		
	
		
	<g
   id="g274"
   style="display:inline"><rect
     x="1415.5"
     y="1174.7"
     class="st56"
     width="357"
     height="357"
     clip-path="url(#SVGID_2_)"
     id="rect134"
     transform="translate(-1379,-1141.2)" /><rect
     x="1379"
     y="1141.2"
     class="st58"
     width="358"
     height="358"
     clip-path="url(#SVGID_103_)"
     id="rect143"
     style="fill:url(#SVGID_104_)"
     transform="translate(-1379,-1141.2)" /><rect
     x="1379.5"
     y="1141.7"
     class="st56"
     width="357"
     height="357"
     clip-path="url(#SVGID_2_)"
     id="rect144"
     transform="translate(-1379,-1141.2)" /><polygon
     class="st68"
     points="1483.6,1341 1471.7,1376.8 1644.3,1376.8 1632.4,1341 "
     clip-path="url(#SVGID_2_)"
     id="polygon162"
     transform="translate(-1379,-1141.2)" /><path
     class="st69"
     d="m 1644.3,1376.8 v 6 c 0,3.3 -2.7,5.9 -6,6 h -160.8 c -3.3,0 -5.9,-2.7 -6,-6 v -6 z"
     clip-path="url(#SVGID_120_)"
     id="path162"
     transform="translate(-1379,-1141.2)" /><path
     class="st69"
     d="M 1632.4,1239.8 V 1341 h -148.9 v -101.2 c 0,-3.3 2.7,-5.9 6,-6 h 136.9 c 3.4,0.1 6,2.7 6,6"
     clip-path="url(#SVGID_120_)"
     id="path163"
     transform="translate(-1379,-1141.2)" /><rect
     x="1495.5"
     y="1245.8"
     class="st70"
     width="125"
     height="83.400002"
     clip-path="url(#SVGID_120_)"
     id="rect163"
     transform="translate(-1379,-1141.2)" /><polygon
     class="st71"
     points="1507.4,1299.4 1531.2,1314.2 1531.2,1290.4 1507.4,1275.5 "
     clip-path="url(#SVGID_120_)"
     id="polygon163"
     transform="translate(-1379,-1141.2)" /><polygon
     class="st72"
     points="1507.4,1275.5 1531.2,1290.4 1555,1275.5 1531.2,1260.7 "
     clip-path="url(#SVGID_120_)"
     id="polygon164"
     transform="translate(-1379,-1141.2)" /><polygon
     class="st72"
     points="1584.8,1302.3 1596.7,1308.3 1608.6,1302.3 1596.7,1296.4 "
     clip-path="url(#SVGID_120_)"
     id="polygon165"
     transform="translate(-1379,-1141.2)" /><polygon
     class="st73"
     points="1608.6,1302.3 1596.7,1308.3 1596.7,1320.2 1608.6,1314.2 "
     clip-path="url(#SVGID_120_)"
     id="polygon166"
     transform="translate(-1379,-1141.2)" /><polygon
     class="st72"
     points="1584.8,1260.7 1596.7,1266.6 1608.6,1260.7 1596.7,1254.7 "
     clip-path="url(#SVGID_120_)"
     id="polygon167"
     transform="translate(-1379,-1141.2)" /><polygon
     class="st73"
     points="1608.6,1260.7 1596.7,1266.6 1596.7,1278.5 1608.6,1272.6 "
     clip-path="url(#SVGID_120_)"
     id="polygon168"
     transform="translate(-1379,-1141.2)" /><path
     class="st74"
     d="m 1549.1,1293.4 c -1.6,0 -3,-1.3 -3,-3 0,-1 0.5,-1.9 1.3,-2.4 l 41.7,-20.8 c 1.4,-0.9 3.2,-0.6 4.1,0.8 0.9,1.4 0.6,3.2 -0.8,4.1 l -41.7,20.8 c -0.4,0.3 -1,0.5 -1.6,0.5"
     clip-path="url(#SVGID_120_)"
     id="path168"
     transform="translate(-1379,-1141.2)" /><path
     class="st74"
     d="m 1590.7,1314.2 c -0.3,0 -0.7,-0.1 -1,-0.2 l -41.7,-14.9 c -1.6,-0.5 -2.4,-2.2 -1.8,-3.8 0.5,-1.6 2.2,-2.4 3.8,-1.8 0,0 0,0 0,0 l 41.7,14.9 c 1.5,0.6 2.4,2.3 1.8,3.8 -0.4,1.3 -1.5,2 -2.8,2"
     clip-path="url(#SVGID_120_)"
     id="path169"
     transform="translate(-1379,-1141.2)" /><polygon
     class="st73"
     points="1531.2,1314.2 1531.2,1290.4 1555,1275.5 1555,1299.4 "
     clip-path="url(#SVGID_120_)"
     id="polygon169"
     transform="translate(-1379,-1141.2)" /><polygon
     class="st71"
     points="1584.8,1314.2 1596.7,1320.2 1596.7,1308.3 1584.8,1302.3 "
     clip-path="url(#SVGID_120_)"
     id="polygon170"
     transform="translate(-1379,-1141.2)" /><polygon
     class="st71"
     points="1584.8,1272.6 1596.7,1278.5 1596.7,1266.6 1584.8,1260.7 "
     clip-path="url(#SVGID_120_)"
     id="polygon171"
     transform="translate(-1379,-1141.2)" /><path
     class="st74"
     d="m 1614.6,1363.4 v 28.8 c 0,1.6 -0.6,3.1 -1.8,4.2 l -2.4,2.4 c -1.1,1.1 -1.8,2.6 -1.8,4.2 v 3.5 h -32.7 v -3.5 c 0,-1.6 -0.6,-3.1 -1.8,-4.2 l -2.4,-2.4 c -1.1,-1.1 -1.8,-2.6 -1.8,-4.2 v -16.9 c 0,-2.5 2,-4.5 4.5,-4.5 h 4.5 v -13.4 c 0,-2.5 2,-4.5 4.5,-4.5 2.5,0 4.5,2 4.5,4.5 v -3 c 0,-2.5 2.1,-4.4 4.5,-4.4 2.4,0 4.4,2 4.4,4.4 v 3 c 0,-2.5 2,-4.5 4.5,-4.5 2.5,0 4.5,2 4.5,4.5 v 6 c 0,-2.5 2,-4.5 4.5,-4.5 2.3,0 4.3,2 4.3,4.5"
     clip-path="url(#SVGID_120_)"
     id="path171"
     transform="translate(-1379,-1141.2)" /><path
     class="st74"
     d="m 1501.4,1363.4 v 28.8 c 0,1.6 0.6,3.1 1.8,4.2 l 2.4,2.4 c 1.1,1.1 1.8,2.6 1.8,4.2 v 3.5 h 32.7 v -3.5 c 0,-1.6 0.6,-3.1 1.8,-4.2 l 2.4,-2.4 c 1.1,-1.1 1.8,-2.6 1.8,-4.2 v -16.9 c 0,-2.5 -2,-4.5 -4.5,-4.5 h -4.5 v -13.4 c 0,-2.5 -2.1,-4.4 -4.5,-4.4 -2.4,0 -4.4,2 -4.4,4.4 v -3 c 0,-2.5 -2,-4.5 -4.5,-4.5 -2.5,0 -4.5,2 -4.5,4.5 v 3 c 0,-2.5 -2,-4.5 -4.5,-4.5 -2.5,0 -4.5,2 -4.5,4.5 v 6 c 0,-2.5 -2,-4.5 -4.5,-4.5 -2.3,0 -4.3,2 -4.3,4.5"
     clip-path="url(#SVGID_120_)"
     id="path172"
     transform="translate(-1379,-1141.2)" /></g>
		
	
		
	<g
   id="g273"
   style="display:inline"><rect
     x="150.5"
     y="1796.7"
     class="st55"
     width="357"
     height="357"
     clip-path="url(#SVGID_2_)"
     id="rect135"
     transform="translate(-148,-1761.2)" /><rect
     x="182"
     y="1763.2"
     class="st59"
     width="358"
     height="358"
     clip-path="url(#SVGID_106_)"
     id="rect146"
     style="fill:url(#SVGID_107_)"
     transform="translate(-148,-1761.2)" /><rect
     x="182.5"
     y="1763.7"
     class="st55"
     width="357"
     height="357"
     clip-path="url(#SVGID_2_)"
     id="rect147"
     transform="translate(-148,-1761.2)" /><polygon
     class="st75"
     points="375.2,1865.6 406.9,1893.1 408.2,1896.1 390.3,1896.1 388.8,1893.1 367.4,1874.6 "
     clip-path="url(#SVGID_2_)"
     id="polygon172"
     transform="translate(-148,-1761.2)" /><polygon
     class="st75"
     points="351.8,1865.6 320.1,1893.1 318.8,1896.1 336.7,1896.1 338.2,1893.1 359.6,1874.6 "
     clip-path="url(#SVGID_2_)"
     id="polygon173"
     transform="translate(-148,-1761.2)" /><path
     class="st76"
     d="m 283.1,1893.1 h 160.8 c 3.3,0 5.9,2.6 6,5.9 v 0 119.1 c 0,3.3 -2.6,5.9 -5.9,6 v 0 H 283.1 c -3.3,0 -5.9,-2.6 -6,-5.9 0,0 0,0 0,0 V 1899 c 0.1,-3.3 2.7,-5.9 6,-5.9 z"
     clip-path="url(#SVGID_122_)"
     id="path173"
     transform="translate(-148,-1761.2)" /><rect
     x="289.10001"
     y="1905"
     class="st77"
     width="148.8"
     height="107.2"
     clip-path="url(#SVGID_122_)"
     id="rect173"
     transform="translate(-148,-1761.2)" /><path
     class="st76"
     d="m 375.4,1863.3 c 0,6.6 -5.3,11.9 -11.9,11.9 -6.6,0 -11.9,-5.3 -11.9,-11.9 0,-6.6 5.3,-11.9 11.9,-11.9 6.6,0 11.9,5.3 11.9,11.9"
     clip-path="url(#SVGID_122_)"
     id="path174"
     transform="translate(-148,-1761.2)" /><rect
     x="375.39999"
     y="1905"
     class="st78"
     width="6"
     height="26.799999"
     clip-path="url(#SVGID_122_)"
     id="rect174"
     transform="translate(-148,-1761.2)" /><rect
     x="345.60001"
     y="1905"
     class="st79"
     width="6"
     height="35.700001"
     clip-path="url(#SVGID_122_)"
     id="rect175"
     transform="translate(-148,-1761.2)" /><path
     class="st78"
     d="m 321,1933.9 -4.2,-4.2 15.2,-15.2 c 1.1,-1.1 1.7,-2.6 1.7,-4.2 v -5.2 h 6 v 5.2 c 0,3.2 -1.3,6.2 -3.5,8.4 z"
     clip-path="url(#SVGID_122_)"
     id="path175"
     transform="translate(-148,-1761.2)" /><path
     class="st79"
     d="m 406.1,1933.9 -15.2,-15.2 c -2.2,-2.2 -3.5,-5.3 -3.5,-8.4 v -5.2 h 6 v 5.2 c 0,1.6 0.6,3.1 1.7,4.2 l 15.2,15.2 z"
     clip-path="url(#SVGID_122_)"
     id="path176"
     transform="translate(-148,-1761.2)" /><path
     class="st79"
     d="m 339.7,2012.2 h -6 v -5.2 c 0,-1.6 -0.6,-3.1 -1.7,-4.2 l -15.2,-15.2 4.2,-4.2 15.2,15.2 c 2.2,2.2 3.5,5.3 3.5,8.4 z"
     clip-path="url(#SVGID_122_)"
     id="path177"
     transform="translate(-148,-1761.2)" /><path
     class="st80"
     d="m 393.3,2012.2 h -6 v -5.2 c 0,-3.2 1.3,-6.2 3.5,-8.4 l 15.2,-15.2 4.2,4.2 -15.2,15.2 c -1.1,1.1 -1.7,2.6 -1.7,4.2 z"
     clip-path="url(#SVGID_122_)"
     id="path178"
     transform="translate(-148,-1761.2)" /><path
     class="st81"
     d="m 366.5,1905 v 14.9 c 0,1.6 -1.3,3 -3,3 -1.7,0 -3,-1.3 -3,-3 V 1905 Z"
     clip-path="url(#SVGID_122_)"
     id="path179"
     transform="translate(-148,-1761.2)" /><rect
     x="345.60001"
     y="1988.3"
     class="st78"
     width="6"
     height="23.799999"
     clip-path="url(#SVGID_122_)"
     id="rect179"
     transform="translate(-148,-1761.2)" /><rect
     x="375.39999"
     y="1979.4"
     class="st79"
     width="6"
     height="32.700001"
     clip-path="url(#SVGID_122_)"
     id="rect180"
     transform="translate(-148,-1761.2)" /><path
     class="st81"
     d="m 360.5,2012.2 v -14.9 c 0,-1.6 1.3,-3 3,-3 1.7,0 3,1.3 3,3 v 14.9 z"
     clip-path="url(#SVGID_122_)"
     id="path180"
     transform="translate(-148,-1761.2)" /><path
     class="st81"
     d="m 387.3,1934.8 c 0,4.9 -4,8.9 -8.9,8.9 -4.9,0 -8.9,-4 -8.9,-8.9 0,-4.9 4,-8.9 8.9,-8.9 4.9,-0.1 8.9,3.9 8.9,8.9 z"
     clip-path="url(#SVGID_122_)"
     id="path181"
     transform="translate(-148,-1761.2)" /><path
     class="st78"
     d="m 417.1,1931.8 c 0,4.9 -4,8.9 -8.9,8.9 -4.9,0 -8.9,-4 -8.9,-8.9 0,-4.9 4,-8.9 8.9,-8.9 v 0 c 4.9,-0.1 8.9,3.9 8.9,8.9 z"
     clip-path="url(#SVGID_122_)"
     id="path182"
     transform="translate(-148,-1761.2)" /><path
     class="st78"
     d="m 357.5,1943.7 c 0,4.9 -4,8.9 -8.9,8.9 -4.9,0 -8.9,-4 -8.9,-8.9 0,-4.9 4,-8.9 8.9,-8.9 4.9,0 8.9,4 8.9,8.9"
     clip-path="url(#SVGID_122_)"
     id="path183"
     transform="translate(-148,-1761.2)" /><path
     class="st81"
     d="m 327.8,1931.8 c 0,4.9 -4,8.9 -8.9,8.9 -4.9,0 -8.9,-4 -8.9,-8.9 0,-4.9 4,-8.9 8.9,-8.9 v 0 c 4.9,-0.1 8.9,3.9 8.9,8.9 z"
     clip-path="url(#SVGID_122_)"
     id="path184"
     transform="translate(-148,-1761.2)" /><path
     class="st81"
     d="m 357.5,1982.4 c 0,4.9 -4,8.9 -8.9,8.9 -4.9,0 -8.9,-4 -8.9,-8.9 0,-4.9 4,-8.9 8.9,-8.9 4.9,0 8.9,4 8.9,8.9 z"
     clip-path="url(#SVGID_122_)"
     id="path185"
     transform="translate(-148,-1761.2)" /><path
     class="st81"
     d="m 417.1,1985.4 c 0,4.9 -4,8.9 -8.9,8.9 -4.9,0 -8.9,-4 -8.9,-8.9 0,-4.9 4,-8.9 8.9,-8.9 v 0 c 4.9,-0.1 8.9,3.9 8.9,8.9"
     clip-path="url(#SVGID_122_)"
     id="path186"
     transform="translate(-148,-1761.2)" /><path
     class="st78"
     d="m 387.3,1973.5 c 0,4.9 -4,8.9 -8.9,8.9 -4.9,0 -8.9,-4 -8.9,-8.9 0,-4.9 4,-8.9 8.9,-8.9 v 0 c 4.9,-0.1 8.9,3.9 8.9,8.9"
     clip-path="url(#SVGID_122_)"
     id="path187"
     transform="translate(-148,-1761.2)" /><path
     class="st78"
     d="m 327.8,1985.4 c 0,4.9 -4,8.9 -8.9,8.9 -4.9,0 -8.9,-4 -8.9,-8.9 0,-4.9 4,-8.9 8.9,-8.9 v 0 c 4.9,-0.1 8.9,3.9 8.9,8.9"
     clip-path="url(#SVGID_122_)"
     id="path188"
     transform="translate(-148,-1761.2)" /></g>
		
	
		
	<g
   id="g272"
   style="display:inline"><rect
     x="160.5"
     y="2955.7"
     class="st55"
     width="357"
     height="357"
     clip-path="url(#SVGID_2_)"
     id="rect137"
     transform="translate(-158,-2953.2)" /><rect
     x="192"
     y="2987.2"
     class="st61"
     width="358"
     height="358"
     clip-path="url(#SVGID_112_)"
     id="rect152"
     style="fill:url(#SVGID_113_)"
     transform="translate(-158,-2953.2)" /><rect
     x="192.5"
     y="2987.7"
     class="st55"
     width="357"
     height="357"
     clip-path="url(#SVGID_2_)"
     id="rect153"
     transform="translate(-158,-2953.2)" /><path
     class="st82"
     d="M 397.8,3133.5 V 3119 c 0,-5.6 -3,-10.8 -7.8,-13.6 l -41.1,-23.6 c -4.7,-2.7 -10.5,-2.7 -15.2,0 l -41.1,23.6 c -4.8,2.8 -7.8,8 -7.8,13.6 v 46.7 c 0,5.6 3,10.7 7.8,13.5 l 41.1,23.6 c 1.8,1 3.8,1.7 5.8,1.9 z"
     clip-path="url(#SVGID_124_)"
     id="path189"
     transform="translate(-158,-2953.2)" /><path
     class="st83"
     d="m 338.3,3191.8 -39.9,-22.9 c -1.1,-0.7 -1.8,-1.9 -1.8,-3.2 V 3119 c 0,-1.3 0.7,-2.5 1.8,-3.2 l 41.1,-23.6 c 1.1,-0.6 2.3,-0.6 3.4,0 l 41.1,23.6 c 1.1,0.7 1.8,1.9 1.8,3.2 v 15.6 z"
     clip-path="url(#SVGID_124_)"
     id="path190"
     transform="translate(-158,-2953.2)" /><path
     class="st84"
     d="m 457.3,3193 c 0,32.9 -26.7,59.5 -59.5,59.5 -32.9,0 -59.5,-26.7 -59.5,-59.5 0,-32.8 26.7,-59.5 59.5,-59.5 15.8,0 30.9,6.3 42.1,17.4 11.2,11.2 17.4,26.3 17.4,42.1"
     clip-path="url(#SVGID_124_)"
     id="path191"
     transform="translate(-158,-2953.2)" /><path
     class="st83"
     d="m 451.4,3109.5 c 0,1.7 -1.4,3.1 -3.1,3.2 0,0 -0.1,0 -0.1,0 -1.1,0 -2.2,-0.6 -2.7,-1.6 -3.2,-5.7 -7.9,-10.3 -14.9,-10.3 h -6 v 4.1 c 0.1,2.6 -2,4.7 -4.6,4.8 -1.2,0 -2.3,-0.4 -3.2,-1.1 l -11.5,-10.1 c -2,-1.8 -2.2,-4.9 -0.4,-6.9 0.1,-0.1 0.3,-0.3 0.4,-0.4 l 11.5,-10.1 c 2,-1.7 4.9,-1.5 6.6,0.5 0.8,0.9 1.2,2 1.1,3.2 v 4.1 h 5.9 c 11.4,-0.1 20.8,9 20.9,20.5 0.1,-0.1 0.1,0 0.1,0.1"
     clip-path="url(#SVGID_124_)"
     id="path192"
     transform="translate(-158,-2953.2)" /><path
     class="st82"
     d="m 290.6,3222.9 c 0,-1.7 1.4,-3.1 3.1,-3.2 0,0 0.1,0 0.1,0 1.1,0 2.2,0.6 2.7,1.6 3.2,5.7 7.9,10.3 14.9,10.3 h 6 v -4.1 c -0.1,-2.6 2,-4.7 4.6,-4.8 1.2,0 2.3,0.4 3.2,1.1 l 11.5,10.1 c 2,1.8 2.2,4.9 0.4,6.9 -0.1,0.1 -0.3,0.3 -0.4,0.4 l -11.5,10.1 c -2,1.7 -4.9,1.5 -6.6,-0.5 -0.8,-0.9 -1.2,-2 -1.1,-3.2 v -4.1 h -5.9 c -11.4,0.1 -20.8,-9 -20.9,-20.5 -0.1,0.1 -0.1,0 -0.1,-0.1"
     clip-path="url(#SVGID_124_)"
     id="path193"
     transform="translate(-158,-2953.2)" /><path
     class="st85"
     d="m 445.4,3193 c 0,26.3 -21.3,47.6 -47.6,47.6 -26.3,0 -47.6,-21.3 -47.6,-47.6 0,-26.3 21.3,-47.6 47.6,-47.6 26.3,0 47.6,21.3 47.6,47.6"
     clip-path="url(#SVGID_124_)"
     id="path194"
     transform="translate(-158,-2953.2)" /><path
     class="st86"
     d="m 412.3,3209.3 h -9.9 l -5.2,-16.8 -5.5,16.8 h -9.9 l -7.5,-25 c -1,-3 0.5,-6 3.2,-6.5 2.9,-0.6 5.6,0.4 6.4,3.5 l 3.9,13.7 4.7,-13.3 c 0.8,-2.7 2.5,-3.8 4.6,-3.8 2.3,-0.1 4.3,1.5 4.8,3.7 l 4.7,13.4 3.8,-13.8 c 0.8,-3.1 3.3,-4.1 6.2,-3.5 2.7,0.6 4,3.5 3,6.6 z"
     clip-path="url(#SVGID_124_)"
     id="path195"
     transform="translate(-158,-2953.2)" /><path
     class="st86"
     d="m 420.1,3199.4 h -7.6 c -2.4,0 -4.3,-1.9 -4.3,-4.3 0,-2.4 1.9,-4.3 4.3,-4.3 h 7.6 c 2.4,0 4.3,1.9 4.3,4.3 0,2.3 -1.9,4.3 -4.3,4.3"
     clip-path="url(#SVGID_124_)"
     id="path196"
     transform="translate(-158,-2953.2)" /><path
     class="st86"
     d="m 382.1,3199.4 h -7.6 c -2.4,0 -4.3,-1.9 -4.3,-4.3 0,-2.4 1.9,-4.3 4.3,-4.3 h 7.6 c 2.4,0 4.3,1.9 4.3,4.3 0.1,2.3 -1.9,4.3 -4.3,4.3"
     clip-path="url(#SVGID_124_)"
     id="path197"
     transform="translate(-158,-2953.2)" /></g>
		
	
		
	<g
   id="g271"
   style="display:inline"><rect
     x="1361.5"
     y="3605.7"
     class="st56"
     width="357"
     height="357"
     clip-path="url(#SVGID_2_)"
     id="rect138"
     transform="translate(-1319,-3571.2)" /><rect
     x="1319"
     y="3571.2"
     class="st62"
     width="358"
     height="358"
     clip-path="url(#SVGID_115_)"
     id="rect155"
     style="fill:url(#SVGID_116_)"
     transform="translate(-1319,-3571.2)" /><rect
     x="1319.5"
     y="3571.7"
     class="st56"
     width="357"
     height="357"
     clip-path="url(#SVGID_2_)"
     id="rect156"
     transform="translate(-1319,-3571.2)" /><path
     class="st87"
     d="m 1456.9,3753.9 h -22.4 c -2.1,0 -3.7,-1.6 -3.8,-3.7 0,-2.1 1.6,-3.7 3.7,-3.8 0,0 0.1,0 0.1,0 h 22.4 c 2.1,0 3.7,1.7 3.7,3.8 -0.1,2.1 -1.7,3.7 -3.7,3.7 z"
     clip-path="url(#SVGID_126_)"
     id="path198"
     transform="translate(-1319,-3571.2)" /><path
     class="st87"
     d="m 1453.1,3828.7 h -18.7 c -2.1,0 -3.7,-1.7 -3.7,-3.8 0,-2 1.7,-3.6 3.7,-3.7 h 16.4 l 9.5,-19.1 c 0.9,-1.8 3.2,-2.6 5,-1.7 1.8,0.9 2.6,3.2 1.7,5 l -10.5,21.1 c -0.7,1.4 -2,2.2 -3.4,2.2"
     clip-path="url(#SVGID_126_)"
     id="path199"
     transform="translate(-1319,-3571.2)" /><path
     class="st87"
     d="m 1561.6,3753.9 h -22.4 c -2.1,0 -3.7,-1.7 -3.7,-3.8 0,-2 1.7,-3.6 3.7,-3.7 h 22.4 c 2.1,0 3.7,1.7 3.7,3.8 -0.1,2.1 -1.7,3.7 -3.7,3.7"
     clip-path="url(#SVGID_126_)"
     id="path200"
     transform="translate(-1319,-3571.2)" /><path
     class="st87"
     d="m 1561.6,3828.7 h -18.7 c -1.4,0 -2.7,-0.8 -3.3,-2.1 l -10.5,-21.1 c -0.9,-1.8 -0.1,-4.1 1.7,-5 1.8,-0.9 4,-0.2 4.9,1.7 l 9.5,19.1 h 16.4 c 2.1,0 3.7,1.7 3.7,3.8 -0.1,2 -1.7,3.6 -3.7,3.6"
     clip-path="url(#SVGID_126_)"
     id="path201"
     transform="translate(-1319,-3571.2)" /><path
     class="st88"
     d="m 1520.4,3727.7 c -2.1,0 -3.7,-1.7 -3.7,-3.7 v -22.4 c -0.1,-10.3 -8.5,-18.7 -18.9,-18.6 -10.2,0.1 -18.5,8.4 -18.6,18.6 v 22.4 c 0,2.1 -1.7,3.7 -3.7,3.7 -2.1,0 -3.7,-1.7 -3.7,-3.7 v -22.4 c 0.1,-14.4 11.9,-26.1 26.3,-26 14.3,0.1 25.9,11.7 26,26 v 22.4 c 0.1,2.1 -1.6,3.7 -3.7,3.7"
     clip-path="url(#SVGID_126_)"
     id="path202"
     transform="translate(-1319,-3571.2)" /><path
     class="st87"
     d="m 1463.9,3730 c -1.7,0 -3.1,-1.1 -3.6,-2.7 l -13.8,-48.2 h -12.2 c -2.1,0 -3.7,-1.7 -3.7,-3.7 0,-2.1 1.7,-3.7 3.7,-3.7 h 15 c 1.7,0 3.1,1.1 3.6,2.7 l 14.5,50.9 c 0.6,2 -0.6,4 -2.6,4.6 -0.2,0.1 -0.5,0.1 -0.9,0.1"
     clip-path="url(#SVGID_126_)"
     id="path203"
     transform="translate(-1319,-3571.2)" /><path
     class="st87"
     d="m 1532.1,3730 c -2.1,0 -3.7,-1.7 -3.7,-3.7 0,-0.3 0,-0.7 0.1,-1 l 14.5,-50.9 c 0.5,-1.6 1.9,-2.7 3.6,-2.7 h 15 c 2.1,0 3.7,1.7 3.7,3.7 0,2.1 -1.7,3.7 -3.7,3.7 h -12.2 l -13.8,48.2 c -0.4,1.6 -1.9,2.7 -3.5,2.7"
     clip-path="url(#SVGID_126_)"
     id="path204"
     transform="translate(-1319,-3571.2)" /><path
     class="st89"
     d="m 1539.1,3739 v 52.4 c 0,8.3 -6.7,15 -15,15 h -52.4 c -8.3,0 -15,-6.7 -15,-15 V 3739 c 0,-8.3 6.7,-15 14.9,-15 v 0 h 52.4 c 8.4,0 15.1,6.7 15.1,15 z"
     clip-path="url(#SVGID_126_)"
     id="path205"
     transform="translate(-1319,-3571.2)" /><path
     class="st88"
     d="m 1512.9,3755.8 c 0,-8.3 -6.7,-15 -14.9,-15 -8.3,0 -15,6.7 -15,14.9 0,6.8 4.6,12.8 11.2,14.5 v 15.5 c 0,2.1 1.7,3.7 3.7,3.7 2.1,0 3.7,-1.7 3.7,-3.7 v -15.5 c 6.7,-1.6 11.3,-7.6 11.3,-14.4 m -14.9,7.5 c -4.1,0 -7.5,-3.4 -7.5,-7.5 0,-4.1 3.4,-7.5 7.5,-7.5 4.1,0 7.5,3.4 7.5,7.5 0,4.2 -3.4,7.5 -7.5,7.5"
     clip-path="url(#SVGID_126_)"
     id="path206"
     transform="translate(-1319,-3571.2)" /><path
     class="st90"
     d="m 1434.4,3675.4 c 0,6.2 -5,11.2 -11.2,11.2 -6.2,0 -11.2,-5 -11.2,-11.2 0,-6.2 5,-11.2 11.2,-11.2 6.2,0 11.2,5 11.2,11.2 z"
     clip-path="url(#SVGID_126_)"
     id="path207"
     transform="translate(-1319,-3571.2)" /><path
     class="st90"
     d="m 1434.4,3825 c 0,6.2 -5,11.2 -11.2,11.2 -6.2,0 -11.2,-5 -11.2,-11.2 0,-6.2 5,-11.2 11.2,-11.2 3,0 5.8,1.2 7.9,3.3 2.1,2.1 3.3,4.9 3.3,7.9"
     clip-path="url(#SVGID_126_)"
     id="path208"
     transform="translate(-1319,-3571.2)" /><path
     class="st90"
     d="m 1434.4,3750.2 c 0,6.2 -5,11.2 -11.2,11.2 -6.2,0 -11.2,-5 -11.2,-11.2 0,-6.2 5,-11.2 11.2,-11.2 3,0 5.8,1.2 7.9,3.3 2.1,2.1 3.3,4.9 3.3,7.9"
     clip-path="url(#SVGID_126_)"
     id="path209"
     transform="translate(-1319,-3571.2)" /><path
     class="st90"
     d="m 1584,3675.4 c 0,6.2 -5,11.2 -11.2,11.2 -6.2,0 -11.2,-5 -11.2,-11.2 0,-6.2 5,-11.2 11.2,-11.2 6.2,0 11.2,5 11.2,11.2 v 0"
     clip-path="url(#SVGID_126_)"
     id="path210"
     transform="translate(-1319,-3571.2)" /><path
     class="st90"
     d="m 1584,3825 c 0,6.2 -5,11.2 -11.2,11.2 -6.2,0 -11.2,-5 -11.2,-11.2 0,-6.2 5,-11.2 11.2,-11.2 3,0 5.8,1.2 7.9,3.3 2.2,2.1 3.3,4.9 3.3,7.9"
     clip-path="url(#SVGID_126_)"
     id="path211"
     transform="translate(-1319,-3571.2)" /><path
     class="st90"
     d="m 1584,3750.2 c 0,6.2 -5,11.2 -11.2,11.2 -6.2,0 -11.2,-5 -11.2,-11.2 0,-6.2 5,-11.2 11.2,-11.2 3,0 5.8,1.2 7.9,3.3 2.2,2.1 3.3,4.9 3.3,7.9"
     clip-path="url(#SVGID_126_)"
     id="path212"
     transform="translate(-1319,-3571.2)" /></g>
		
	
		
	<g
   id="g270"
   style="display:inline"
   transform="translate(2,2)"><rect
     x="1377.5"
     y="2343.7"
     class="st56"
     width="357"
     height="357"
     clip-path="url(#SVGID_2_)"
     id="rect136"
     transform="translate(-1340,-2343.1999)" /><rect
     x="1340"
     y="2375.2"
     class="st60"
     width="358"
     height="358"
     clip-path="url(#SVGID_109_)"
     id="rect149"
     style="fill:url(#SVGID_110_)"
     transform="translate(-1340,-2343.1999)" /><rect
     x="1340.5"
     y="2375.7"
     class="st56"
     width="357"
     height="357"
     clip-path="url(#SVGID_2_)"
     id="rect150"
     transform="translate(-1340,-2343.1999)" /><path
     class="st91"
     d="m 1477.3,2515.5 c -0.8,0 -1.5,-0.3 -2.1,-0.9 l -20.8,-20.8 c -1.2,-1.2 -1.1,-3.1 0,-4.2 1.2,-1.1 3,-1.1 4.2,0 l 20.8,20.8 c 1.2,1.2 1.2,3 0,4.2 -0.5,0.6 -1.3,0.9 -2.1,0.9"
     clip-path="url(#SVGID_128_)"
     id="path213"
     transform="translate(-1340,-2343.1999)" /><path
     class="st92"
     d="m 1495.2,2505.3 c -1.6,0 -3,-1.3 -3,-3 v 0 -12.2 l -10.7,-8 c -1.3,-1 -1.6,-2.9 -0.6,-4.2 1,-1.3 2.9,-1.6 4.2,-0.6 l 11.9,8.9 c 0.7,0.6 1.2,1.4 1.2,2.4 v 13.7 c 0,1.7 -1.4,3 -3,3"
     clip-path="url(#SVGID_128_)"
     id="path214"
     transform="translate(-1340,-2343.1999)" /><path
     class="st91"
     d="m 1465.4,2554.2 c 0,1.6 -1.3,3 -3,3 h -23.8 c -1.6,0 -3,-1.3 -3,-3 0,-1.7 1.3,-3 3,-3 h 23.8 c 1.7,0 3,1.4 3,3"
     clip-path="url(#SVGID_128_)"
     id="path215"
     transform="translate(-1340,-2343.1999)" /><path
     class="st92"
     d="m 1470.1,2578 c 0,1.6 -1.3,3 -3,3 H 1455 l -8,10.7 c -1,1.3 -2.8,1.6 -4.2,0.6 -1.3,-1 -1.6,-2.8 -0.6,-4.2 0,0 0,0 0,-0.1 l 8.9,-11.9 c 0.6,-0.7 1.4,-1.2 2.4,-1.2 h 13.7 c 1.6,0.1 2.9,1.5 2.9,3.1"
     clip-path="url(#SVGID_128_)"
     id="path216"
     transform="translate(-1340,-2343.1999)" /><path
     class="st92"
     d="m 1470.1,2530.4 c 0,1.6 -1.3,3 -3,3 v 0 h -13.7 c -0.9,0 -1.8,-0.4 -2.4,-1.2 l -8.9,-11.9 c -1,-1.3 -0.8,-3.2 0.5,-4.2 1.3,-1 3.2,-0.8 4.2,0.5 0,0 0,0 0,0.1 l 8,10.7 h 12.2 c 1.8,0 3.1,1.3 3.1,3"
     clip-path="url(#SVGID_128_)"
     id="path217"
     transform="translate(-1340,-2343.1999)" /><path
     class="st91"
     d="m 1572.6,2554.2 c 0,1.6 1.3,3 3,3 h 23.8 c 1.6,0 3,-1.3 3,-3 0,-1.7 -1.3,-3 -3,-3 h -23.8 c -1.7,0 -3,1.4 -3,3"
     clip-path="url(#SVGID_128_)"
     id="path218"
     transform="translate(-1340,-2343.1999)" /><path
     class="st91"
     d="m 1519,2500.6 c -1.6,0 -3,-1.3 -3,-3 v -23.8 c 0,-1.6 1.3,-3 3,-3 1.6,0 3,1.3 3,3 v 23.8 c 0,1.7 -1.4,3 -3,3"
     clip-path="url(#SVGID_128_)"
     id="path219"
     transform="translate(-1340,-2343.1999)" /><path
     class="st91"
     d="m 1560.7,2515.5 c -1.6,0 -3,-1.3 -3,-3 0,-0.8 0.3,-1.5 0.9,-2.1 l 20.8,-20.8 c 1.2,-1.1 3.1,-1.1 4.2,0.1 1.1,1.2 1.1,3 0,4.1 l -20.8,20.8 c -0.6,0.6 -1.3,0.9 -2.1,0.9"
     clip-path="url(#SVGID_128_)"
     id="path220"
     transform="translate(-1340,-2343.1999)" /><path
     class="st92"
     d="m 1542.8,2505.3 c -1.6,0 -3,-1.3 -3,-3 v -13.7 c 0,-0.9 0.4,-1.8 1.2,-2.4 l 11.9,-8.9 c 1.3,-1 3.2,-0.8 4.2,0.5 1,1.3 0.8,3.2 -0.5,4.2 0,0 0,0 -0.1,0 l -10.7,8 v 12.2 c 0,1.8 -1.3,3.1 -3,3.1"
     clip-path="url(#SVGID_128_)"
     id="path221"
     transform="translate(-1340,-2343.1999)" /><path
     class="st92"
     d="m 1567.9,2530.4 c 0,1.6 1.3,3 3,3 h 13.7 c 0.9,0 1.8,-0.4 2.4,-1.2 l 8.9,-11.9 c 1,-1.3 0.8,-3.2 -0.5,-4.2 -1.3,-1 -3.2,-0.8 -4.2,0.5 0,0 0,0 0,0.1 l -8,10.7 H 1571 c -1.8,0 -3.1,1.3 -3.1,3"
     clip-path="url(#SVGID_128_)"
     id="path222"
     transform="translate(-1340,-2343.1999)" /><path
     class="st92"
     d="m 1567.9,2578 c 0,1.6 1.3,3 3,3 h 12.2 l 8,10.7 c 1,1.3 2.9,1.5 4.2,0.5 1.3,-1 1.5,-2.8 0.6,-4.1 l -8.9,-11.9 c -0.6,-0.7 -1.4,-1.2 -2.4,-1.2 h -13.7 c -1.7,0 -3,1.4 -3,3"
     clip-path="url(#SVGID_128_)"
     id="path223"
     transform="translate(-1340,-2343.1999)" /><path
     class="st91"
     d="m 1519,2607.8 c -1.6,0 -3,1.3 -3,3 v 23.8 c 0,1.6 1.3,3 3,3 1.6,0 3,-1.3 3,-3 v -23.8 c 0,-1.7 -1.4,-3 -3,-3"
     clip-path="url(#SVGID_128_)"
     id="path224"
     transform="translate(-1340,-2343.1999)" /><path
     class="st91"
     d="m 1477.3,2592.9 c -0.8,0 -1.5,0.3 -2.1,0.9 l -20.8,20.8 c -1.2,1.2 -1.1,3.1 0,4.2 1.2,1.1 3,1.1 4.2,0 l 20.8,-20.8 c 1.2,-1.2 1.2,-3 0,-4.2 -0.5,-0.6 -1.3,-0.9 -2.1,-0.9"
     clip-path="url(#SVGID_128_)"
     id="path225"
     transform="translate(-1340,-2343.1999)" /><path
     class="st91"
     d="m 1560.7,2592.9 c -1.6,0 -3,1.3 -3,3 0,0.8 0.3,1.5 0.9,2.1 l 20.8,20.8 c 1.2,1.1 3.1,1.1 4.2,-0.1 1.1,-1.2 1.1,-3 0,-4.1 l -20.8,-20.8 c -0.6,-0.6 -1.3,-0.9 -2.1,-0.9"
     clip-path="url(#SVGID_128_)"
     id="path226"
     transform="translate(-1340,-2343.1999)" /><path
     class="st92"
     d="m 1495.2,2603.1 c -1.6,0 -3,1.3 -3,3 v 12.2 l -10.7,8 c -1.3,1 -1.6,2.8 -0.6,4.2 1,1.3 2.8,1.6 4.2,0.6 0,0 0,0 0.1,0 l 11.9,-8.9 c 0.7,-0.6 1.2,-1.4 1.2,-2.4 V 2606 c -0.1,-1.6 -1.5,-2.9 -3.1,-2.9"
     clip-path="url(#SVGID_128_)"
     id="path227"
     transform="translate(-1340,-2343.1999)" /><path
     class="st92"
     d="m 1542.8,2603.1 c -1.6,0 -3,1.3 -3,3 v 13.7 c 0,0.9 0.4,1.8 1.2,2.4 l 11.9,8.9 c 1.3,1 3.2,0.8 4.2,-0.5 1,-1.3 0.8,-3.2 -0.5,-4.2 0,0 0,0 -0.1,0 l -10.7,-8 V 2606 c 0,-1.6 -1.3,-2.9 -3,-2.9"
     clip-path="url(#SVGID_128_)"
     id="path228"
     transform="translate(-1340,-2343.1999)" /><path
     class="st93"
     d="m 1581.5,2554.2 c 0,34.5 -28,62.5 -62.5,62.5 -34.5,0 -62.5,-28 -62.5,-62.5 0,-34.5 28,-62.5 62.5,-62.5 34.5,0 62.5,28 62.5,62.5"
     clip-path="url(#SVGID_128_)"
     id="path229"
     transform="translate(-1340,-2343.1999)" /><path
     class="st94"
     d="m 1569.6,2554.2 c 0,28 -22.7,50.6 -50.6,50.6 -28,0 -50.6,-22.7 -50.6,-50.6 0,-28 22.7,-50.6 50.6,-50.6 28,0 50.6,22.7 50.6,50.6"
     clip-path="url(#SVGID_128_)"
     id="path230"
     transform="translate(-1340,-2343.1999)" /><path
     class="st95"
     d="m 1543,2558.1 -21.9,26 c -1,1.2 -2.7,1.3 -3.9,0.3 -0.1,-0.1 -0.2,-0.2 -0.3,-0.3 l -21.9,-26 c -0.8,-0.9 -0.8,-2.3 -0.1,-3.3 l 21.9,-30.3 c 0.9,-1.2 2.6,-1.5 3.9,-0.6 0.2,0.2 0.4,0.4 0.6,0.6 l 21.9,30.3 c 0.7,1 0.6,2.4 -0.2,3.3"
     clip-path="url(#SVGID_128_)"
     id="path231"
     transform="translate(-1340,-2343.1999)" /><path
     class="st92"
     d="m 1525,2473.8 c 0,3.3 -2.7,6 -6,6 -3.3,0 -6,-2.7 -6,-6 0,-3.3 2.7,-6 6,-6 3.3,0.1 6,2.7 6,6 z"
     clip-path="url(#SVGID_128_)"
     id="path232"
     transform="translate(-1340,-2343.1999)" /><path
     class="st92"
     d="m 1462.2,2491.4 c 0,3.3 -2.7,6 -6,6 -3.3,0 -6,-2.7 -6,-6 0,-3.3 2.7,-6 6,-6 3.3,0.1 6,2.7 6,6"
     clip-path="url(#SVGID_128_)"
     id="path233"
     transform="translate(-1340,-2343.1999)" /><path
     class="st92"
     d="m 1462.2,2617 c 0,3.3 -2.7,6 -6,6 -3.3,0 -6,-2.7 -6,-6 0,-3.3 2.7,-6 6,-6 3.3,0 6,2.7 6,6"
     clip-path="url(#SVGID_128_)"
     id="path234"
     transform="translate(-1340,-2343.1999)" /><path
     class="st92"
     d="m 1587.7,2617 c 0,3.3 -2.7,6 -6,6 -3.3,0 -6,-2.7 -6,-6 0,-3.3 2.7,-6 6,-6 3.4,0 6,2.7 6,6 z"
     clip-path="url(#SVGID_128_)"
     id="path235"
     transform="translate(-1340,-2343.1999)" /><path
     class="st92"
     d="m 1587.7,2491.4 c 0,3.3 -2.7,6 -6,6 -3.3,0 -6,-2.7 -6,-6 0,-3.3 2.7,-6 6,-6 3.4,0.1 6,2.7 6,6"
     clip-path="url(#SVGID_128_)"
     id="path236"
     transform="translate(-1340,-2343.1999)" /><path
     class="st96"
     d="m 1489.2,2479.8 c 0,3.3 -2.7,6 -6,6 -3.3,0 -6,-2.7 -6,-6 0,-3.3 2.7,-6 6,-6 3.4,0 6,2.7 6,6 z"
     clip-path="url(#SVGID_128_)"
     id="path237"
     transform="translate(-1340,-2343.1999)" /><path
     class="st96"
     d="m 1560.7,2479.8 c 0,3.3 -2.7,6 -6,6 -3.3,0 -6,-2.7 -6,-6 0,-3.3 2.7,-6 6,-6 3.3,0 6,2.7 6,6 z"
     clip-path="url(#SVGID_128_)"
     id="path238"
     transform="translate(-1340,-2343.1999)" /><path
     class="st92"
     d="m 1444.6,2554.2 c 0,3.3 -2.7,6 -6,6 -3.3,0 -6,-2.7 -6,-6 0,-3.3 2.7,-6 6,-6 3.3,0 6,2.7 6,6 z"
     clip-path="url(#SVGID_128_)"
     id="path239"
     transform="translate(-1340,-2343.1999)" /><path
     class="st96"
     d="m 1450.5,2589.9 c 0,3.3 -2.7,6 -6,6 -3.3,0 -6,-2.7 -6,-6 0,-3.3 2.7,-6 6,-6 3.4,0.1 6,2.7 6,6 z"
     clip-path="url(#SVGID_128_)"
     id="path240"
     transform="translate(-1340,-2343.1999)" /><path
     class="st96"
     d="m 1450.5,2518.5 c 0,3.3 -2.7,6 -6,6 -3.3,0 -6,-2.7 -6,-6 0,-3.3 2.7,-6 6,-6 3.4,0 6,2.7 6,6 z"
     clip-path="url(#SVGID_128_)"
     id="path241"
     transform="translate(-1340,-2343.1999)" /><path
     class="st92"
     d="m 1525,2634.6 c 0,3.3 -2.7,6 -6,6 -3.3,0 -6,-2.7 -6,-6 0,-3.3 2.7,-6 6,-6 3.3,0 6,2.7 6,6 z"
     clip-path="url(#SVGID_128_)"
     id="path242"
     transform="translate(-1340,-2343.1999)" /><path
     class="st96"
     d="m 1560.7,2628.6 c 0,3.3 -2.7,6 -6,6 -3.3,0 -6,-2.7 -6,-6 0,-3.3 2.7,-6 6,-6 3.3,0.1 6,2.7 6,6 z"
     clip-path="url(#SVGID_128_)"
     id="path243"
     transform="translate(-1340,-2343.1999)" /><path
     class="st96"
     d="m 1489.2,2628.6 c 0,3.3 -2.7,6 -6,6 -3.3,0 -6,-2.7 -6,-6 0,-3.3 2.7,-6 6,-6 3.4,0.1 6,2.7 6,6 z"
     clip-path="url(#SVGID_128_)"
     id="path244"
     transform="translate(-1340,-2343.1999)" /><path
     class="st92"
     d="m 1605.3,2554.2 c 0,3.3 -2.7,6 -6,6 -3.3,0 -6,-2.7 -6,-6 0,-3.3 2.7,-6 6,-6 3.4,0 6,2.7 6,6 z"
     clip-path="url(#SVGID_128_)"
     id="path245"
     transform="translate(-1340,-2343.1999)" /><path
     class="st96"
     d="m 1599.4,2518.5 c 0,3.3 -2.7,6 -6,6 -3.3,0 -6,-2.7 -6,-6 0,-3.3 2.7,-6 6,-6 3.3,0 6,2.7 6,6 z"
     clip-path="url(#SVGID_128_)"
     id="path246"
     transform="translate(-1340,-2343.1999)" /><path
     class="st96"
     d="m 1599.4,2589.9 c 0,3.3 -2.7,6 -6,6 -3.3,0 -6,-2.7 -6,-6 0,-3.3 2.7,-6 6,-6 3.3,0.1 6,2.7 6,6 z"
     clip-path="url(#SVGID_128_)"
     id="path247"
     transform="translate(-1340,-2343.1999)" /></g>
		
	
</svg>
