<svg width="96.599mm" height="119.96mm" version="1.1" viewBox="0 0 96.599 119.96" xmlns="http://www.w3.org/2000/svg" xmlns:xlink="http://www.w3.org/1999/xlink">
	<defs>
		<linearGradient id="a" x1="1127.3" x2="1532" y1="1874.2" y2="1874.2" gradientTransform="matrix(1,0,0,-1,0,4098)" gradientUnits="userSpaceOnUse">
			<stop stop-color="#1B69FF" offset="0"/>
			<stop stop-color="#43D2FF" offset="1"/>
		</linearGradient>
		<linearGradient id="c" x1="1059.8" x2="1596.7" y1="2173.1" y2="1674.7" gradientTransform="matrix(1,0,0,-1,0,4098)" gradientUnits="userSpaceOnUse">
			<stop stop-color="#122CA5" offset="0"/>
			<stop stop-color="#12247F" offset="1"/>
		</linearGradient>
		<linearGradient id="b" x1="1055.1" x2="1694.9" y1="2385.6" y2="2039.4" gradientTransform="matrix(1,0,0,-1,0,4098)" gradientUnits="userSpaceOnUse">
			<stop stop-color="#1B05BE" offset="0"/>
			<stop stop-color="#438BFF" offset="1"/>
		</linearGradient>
	</defs>
	<g transform="translate(-54.067 -71.959)">
		<g fill="none" stroke="#2b3ad7" stroke-dasharray="1.5875, 1.5875" stroke-width=".52917">
			<path d="m92.371 80.405 12.702 12.436 12.702-12.436z" stroke-opacity=".38402"/>
			<path d="m92.371 93.033 12.702 12.436 12.702-12.436z" stroke-opacity=".73733"/>
			<path d="m92.371 105.66 12.702 12.436 12.702-12.436z"/>
		</g>
		<g>
			<path transform="translate(110.24 18.204)" d="m-46.971 115.24 33.677-6.1045c2.2748-0.41234 5.1793 0.34674 6.5472 1.7047l40.746 40.452c1.6446 1.6327 1.2465 3.5884-0.93144 4.3852l-32.609 11.93c-2.7233 0.99632-6.3375 0.25389-8.0507-1.6659l-41.925-46.982c-1.3903-1.558-0.23413-3.2155 2.5463-3.7195z" fill="#a5acee" fill-opacity=".22427" stroke="#2b3ad7" stroke-width=".52917"/>
			<path d="m100.52 168.75 23.935-7.7537" fill="#767676" stroke="#c5c6d2" stroke-linecap="round" stroke-width="1.3229"/>
			<path d="m100.52 168.75 16.455-5.3305" fill="#fff" stroke="#2b3ad7" stroke-linecap="round" stroke-width="1.3229"/>
		</g>
		<path class="st1" transform="matrix(.013393 -.0025316 .0043433 .011008 71.351 131.43)" d="m1462.9 1888-115.08 588.44c-4.63 23.12-17.86 43.92-36.04 59.11-18.19 15.19-41.01 24.43-64.16 24.43-167.99 0-281.09-129.44-262.24-294.55 0-1.65 0-3.3 0.66-4.95 0.66-7.26 1.98-14.53 3.3-21.79l6.29-31.37c6.94-22.12 17.53-43.26 30.42-63.4 115.41-176.99 437.17-256.25 437.17-256.25z" fill="url(#a)"/>
		<path transform="matrix(.013393 -.0025316 .0043433 .011008 71.351 131.43)" d="m1462.9 1888-54.56 279.69c-24.47-3.3-48.94-4.95-74.07-4.95-116.73 0-238.43 35.66-348.55 103.03-0.33 0-0.99 0.66-1.32 0.66l1.98-5.61 40.01-116.23c115.41-176.99 437.17-256.25 437.17-256.25z" fill="url(#c)"/>
		<path transform="matrix(.013393 -.0025316 .0043433 .011008 71.351 131.43)" d="m1795.6 1536h-544.65c-68.45 0-134.92 55.48-148.15 123.83l-87.96 450.08-30.76 156.52c126.32-100.39 278.44-156.52 425.27-156.52h273.81c68.46 0 134.92-55.48 148.15-123.83l63.83-326.25c13.23-68.35-31.42-123.83-99.87-123.83z" fill="url(#b)"/>
	</g>
</svg>
