<svg enable-background="new 0 0 70 70" version="1.1" viewBox="0 0 70 70" xmlns="http://www.w3.org/2000/svg">
	<style type="text/css">.st0{fill:#FFFFFF;}
	.st1{fill:#F8E19A;}</style>
	<path id="a" class="st1" d="m35 1.896c-18.26 0-33.1 14.79-33.1 33.1s14.79 33.1 33.1 33.1 33.1-14.79 33.1-33.06c-0.3446-18.41-15.03-33.15-33.1-33.15zm3.03 38.47c0.9743 0.8318 1.509 2.056 1.509 3.315-0.04753 2.495-2.056 4.444-4.492 4.492-1.271-0.04753-2.436-0.5822-3.315-1.509-3.268-2.828-8.151-2.828-11.43 0l-0.2971 0.2971c-0.8793 0.5822-1.806 1.224-3.03 1.224-1.129 0.04753-2.246-0.3921-3.03-1.224l-0.5822-0.5822v-0.2971l-0.2971-0.2971c0-0.2971-0.2971-0.5822-0.2971-0.9268s-0.2971-0.9268-0.2971-1.224c0-0.5822 0-0.8793 0.2971-1.224 0-0.2971 0.2971-0.5822 0.2971-0.9268 0-0.1426 0.1426-0.2971 0.2971-0.2971v-0.2971c0.5822 0 0.5822 0 0.5822-0.2971l0.2971-0.2971c1.319-1.509 2.056-3.422 2.103-5.418 0.09506-1.996-0.6892-4.004-2.103-5.418-0.7842-1.069-1.176-2.293-1.224-3.612 0.04753-2.495 2.056-4.444 4.492-4.492 2.388 0 4.194 2.103 4.194 4.492-0.04753 1.271-0.5822 2.436-1.509 3.315-2.828 3.268-2.828 8.151 0 11.43l0.2971 0.2971c1.509 1.319 3.422 2.056 5.418 2.103 1.996 0.09506 4.004-0.6892 5.418-2.103 0-0.2971 0.2971-0.2971 0.5822-0.5822 1.319-1.509 2.056-3.422 2.103-5.418 0.09506-1.996-0.6892-4.004-2.103-5.418-0.9743-0.9268-1.509-2.246-1.509-3.612 0-2.495 1.996-4.492 4.492-4.492 2.495 0 4.492 1.996 4.492 4.492-0.04753 1.271-0.5822 2.436-1.509 3.315-1.366 1.616-2.103 3.612-2.103 5.715 0.05941 2.103 0.8436 4.064 2.258 5.478zm5.715-1.176c-2.495 0-4.492-1.996-4.492-4.492 0-2.495 1.996-4.492 4.492-4.492 2.495 0 4.492 1.996 4.492 4.492 0.04753 2.436-1.901 4.444-4.349 4.492h-0.1426zm11.72 1.176c0.2971 0.5822 0.5822 0.5822 0.5822 0.5822v0.2971l0.2971 0.2971c0 0.2971 0.2971 0.5822 0.2971 0.9268s0.2971 0.9268 0.2971 1.224c0 0.5822 0 0.9268-0.2971 1.224 0 0.2971-0.2971 0.5822-0.2971 0.9268 0 0.1426-0.1426 0.2971-0.2971 0.2971v0.2971l-0.5822 0.5822c-0.9268 0.5822-1.806 1.224-3.03 1.224-1.129 0.04753-2.246-0.3921-3.03-1.224l-0.5822-0.5822v-0.3446l-0.2971-0.2971c0-0.2971-0.2971-0.5822-0.2971-0.9268 0-0.3446-0.2971-0.9268-0.2971-1.224 0-0.5822 0-0.8793 0.2971-1.224 0-0.2971 0.2971-0.5822 0.2971-0.9268 0-0.1426 0.1426-0.2971 0.2971-0.2971v-0.2971l0.5941-0.5941c1.319-1.509 2.056-3.422 2.103-5.418 0.09506-1.996-0.6892-4.004-2.103-5.418-0.9268-0.8793-1.462-2.056-1.509-3.315 0-2.495 1.996-4.492 4.492-4.492 2.495 0 4.492 1.996 4.492 4.492-0.04753 1.271-0.5822 2.436-1.509 3.315-1.366 1.616-2.103 3.612-2.103 5.715 0.08318 1.866 0.9625 3.672 2.186 5.181z" stroke-width="1.188"/>
</svg>
