<svg enable-background="new 0 0 610.4 120.4" version="1.1" viewBox="0 0 610.4 120.4" xmlns="http://www.w3.org/2000/svg">
 <style type="text/css">.st0{fill:#00367B;}</style>
 <g>
  <g>
   <path class="st0" d="M20.7,1.8v99.3h58.6v17.5H0V1.8H20.7z"/>
   <path class="st0" d="M92.7,1.8h20.8v116.8H92.7V1.8z"/>
   <path class="st0" d="m223.1 13.1-11.1 15.9c-8.6-7.6-19-10.2-28.7-10.2-18 0-31.1 6.6-31.1 36.3v12c0 25.5 13.5 34.5 32.4 34.5 7.6 0 13.3-1.1 19.1-3.4v-27.9h-24.5v-17.5h45v56.9c-10.4 7-26.7 10.7-40.7 10.7-29.7 0-52.2-14.3-52.2-49.1v-20.9c0-35 21.9-50.4 51.9-50.4 13.9 0 27.9 3.4 39.9 13.1z"/>
   <path class="st0" d="m524.1 72.3 28.2 46.4h-24.3l-17.7-32.6-17.8 32.6h-23l28.8-46.4-27.7-42.9h24.4l16.7 29.8 17.2-29.8h22.5l-27.3 42.9z"/>
   <polygon class="st0" points="592.1 1.8 559.2 20.1 569.2 36.9 589.7 25.1 589.7 118.6 610.4 118.6 610.4 1.8"/>
   <path class="st0" d="m462.8 110.4c-8.6 5.8-19.9 9.6-36.6 9.6-20.6 0-40.8-9.7-40.8-41.7v-9.3c0-29 18-41.6 40.7-41.6s39.1 13.1 39.1 39.2v14.7h-59c0 14.3 7 21.6 21.2 21.6 10.5 0 18.2-2.1 27.1-7.3l8.3 14.8zm-18.5-44.4v-3.9c0-9.6-4.4-17.8-18.6-17.8-14.3 0-19.6 8.3-19.6 18.3v3.4h38.2z"/>
   <polygon class="st0" points="350.3 1.8 349 1.8 349 83.5 303 1.8 299.9 1.8 279.2 1.8 279.2 118.6 298.7 118.6 299.9 118.6 299.9 37 346 118.6 349 118.6 369.8 118.6 369.8 1.8"/>
  </g>
 </g>
</svg>
