<svg enable-background="new 0 0 70 70" version="1.1" viewBox="0 0 70 70" xmlns="http://www.w3.org/2000/svg">
	<style type="text/css">.st0{fill:#FFFFFF;}
	.st1{fill:#4231C8;}</style>
	<path class="st1" d="m34.99 9.35c-0.43 0-0.8555 0.1008-1.23 0.3008l-20.14 11.59c-0.75 0.47-1.23 1.31-1.27 2.18v23.17c0.04 0.87 0.5095 1.7 1.27 2.18l20.13 11.59c0.79 0.4 1.74 0.4 2.49 0l20.13-11.59c0.75-0.47 1.231-1.31 1.271-2.18v-23.18c-0.08-0.91-0.5098-1.7-1.26-2.17l-20.13-11.59c-0.395-0.2-0.8298-0.3008-1.26-0.3008zm-0.3555 8.381c0.425 0 0.8511 0.09883 1.246 0.2988l11.47 6.641c0.96 0.52 0.9608 1.389 0.05078 1.949l-11.47 6.762c-0.79 0.4-1.7 0.4-2.49 0l-7.279-4.311c-0.91-0.51-1.66-0.1208-1.66 0.9492v12.89c0 1.03-0.7502 1.46-1.66 0.9902l-1.23-0.6309c-0.75-0.47-1.229-1.269-1.309-2.139v-14.04c0.04-0.87 0.5095-1.7 1.27-2.18l11.82-6.881c0.395-0.2 0.8191-0.2988 1.244-0.2988zm0.08984 3.799c-0.425 0-0.8491 0.1008-1.244 0.3008l-4.15 2.41c-0.91 0.51-0.91 1.38 0 1.9l4.189 2.449c0.79 0.4 1.7 0.4 2.49 0l4.189-2.449c0.83-0.55 0.8299-1.38-0.08008-1.9l-4.148-2.41c-0.395-0.2-0.8211-0.3008-1.246-0.3008z"/>
</svg>
