<svg enable-background="new 0 0 1148 1148" version="1.1" viewBox="0 0 1148 1148" xmlns="http://www.w3.org/2000/svg">
 <rect width="1148" height="1148" fill="#fff"/>
 <g transform="translate(56,56)">
  <path d="m224 0v28 28 28h28v28h-28v28h28 28 28 28 28 28 28v28h28v-28-28h-28-28v-28-28h28 28v-28-28h-28-28v28h-28v28 28h-28v28h-28-28v-28h28v-28-28-28h-28-28-28zm224 56v28h28v-28h-28zm28 0h28 28v28h28v-28-28h28v28 28 28 28h28v28 28 28h-28v28h28 28 28v28h-28-28-28-28-28v28 28h28 28v-28h28v28h28v28 28h28 28v28h28 28v28 28h-28v-28h-28v28 28 28 28h28v28 28h28v28h-28v28h28 28v-28-28-28h-28v-28h28v28h28 28 28 28v28h28v-28h28v-28-28h-28v28h-28-28v-28h-28v28h-28v-28-28h-28v-28h28v-28h-28v-28-28h28v-28-28h28v28h28v-28h28 28v-28h-28-28v-28h-28v-28-28h-28v28 28 28h-28v28h-28v28h-28-28v-28h-28v-28h28 28v-28h-28v-28-28h-28v-28h-28v-28h28v-28h-28v-28h-28v-28-28-28h28v28 28 28h28v-28-28h28v-28h-28v-28h-28-28-28-28-28v28h-28v-28h-28v28 28zm224 0v28 28h28v-28h28 28v-28h-28-28-28zm84 0h28v-28h-28v28zm0 28v28 28h28v-28-28h-28zm-56 28v28h28v-28h-28zm0 28h-28v28h28v-28zm0 28v28h-28v28h28v28 28h28v28h28v-28-28h-28v-28h28 28v-28-28h-28v28h-28v-28h-28zm28 140h-28v28h28v-28zm-56-112v-28h-28v28h28zm168 84h28 28v28h28v-28h28 28v-28h28v-28h-28-28-28v28h-28v-28h-28v28h-28v28zm140 0v28h-28-28v28h28 28v28h28v-28-28-28h-28zm-196 168h28v-28h-28v28zm28-28h28v-28h-28v28zm28 0v28h28v-28h-28zm28 0h28v28h28v28h28 28v-28h28v-28-28h-28-28-28v-28h-28-28v28 28zm56 56h-28v28h28v-28zm0 28v28h28v-28h-28zm-84-56h-28v28h28v-28zm0 28v28 28h28v-28-28h-28zm-28 0h-28v28h28v-28zm112 112v28h28v-28h-28zm0 28h-28v28h-28v-28h-28v28h-28-28v28h28v28h28v28h28 28v-28h-28v-28h28 28 28v-28h-28v-28zm-84 112h-28v28h-28v-28h-28v-28h-28-28-28v28h-28v28h28 28 28v28h-28-28-28v28h28 28 28 28v28 28 28h-28-28v28h-28v28h-28v-28h-28-28v28h-28v28h28 28v28h28v-28h28 28v-28h28v28h28 28v-28h28 28v-28h28 28v-28-28-28-28h28v28h28v-28h28 28v-28h-28-28v-28h-28-28v28h-28v-28h-28v-28zm112 28h28 28v-28h-28-28v28zm0 84v28 28h28v-28h28v-28h-28-28zm28 56v28 28 28h-28v-28h-28v28h-28v-28h-28v28 28h28v28h28v-28h28 28v28h28v-28-28-28-28-28h-28zm-112 112h-28v-28h-28-28v28h28v28h28 28v-28zm-84 0h-28v28h28v-28zm112-56h28v-28h-28v28zm-252 56v28h28v-28h-28zm-28 0h-28v28h28v-28zm-56-56v-28h28v-28-28h-28v28h-28v28 28h28zm84-28h28v-28h28v-28h28v-28h-28-28v28h-28v-28h-28v28 28h28v28zm-28-84v-28-28-28-28h28v-28h-28v-28h-28-28-28-28v28h-28v28h28 28v-28h28 28v28 28 28 28h-28v-28h-28v-28h-28v28 28 28h-28v-28h-28v28 28h28 28 28v-28h28 28 28zm-140-140v-28h-28v28h28zm-28-28v-28-28h-28v-28h-28v28h-28v28 28h28v-28h28v28h28zm-28-84h28v28h28 28 28v-28h28v-28-28h-28v-28h-28v28h-28v28h28v28h-28v-28h-28v-28h28v-28-28h28v-28h-28-28v28 28h-28v28h-28-28v-28h28v-28-28h-28-28v28h-28v-28h28v-28h-28-28-28v28h28v28h-28v28h28 28 28v28 28h28 28 28v28zm-168-112v-28h-28v28h28zm-28 0h-28v28 28 28h28v-28-28-28zm0 84v28 28h-28v28h28 28v-28h28 28v-28h-28v-28h-28-28zm56 0h28v-28h-28v28zm-28 84v28h-28v28h-28v-28h-28-28v28h28v28h-28-28-28v28h28 28 28 28 28v28h28v-28-28h28v-28h28 28v-28-28h-28v28h-28v-28h-28zm84 56v28h28 28v-28h-28-28zm56 28v28h28v-28h-28zm28 28v28h28v-28h-28zm0 28h-28v-28h-28-28v-28h-28-28v28h28v28h28v28h28v28h28v28h28v-28-28-28zm-28 84h-28v-28h-28v28 28 28 28 28h-28v-28h-28-28v28 28h28 28v28h28v-28h28v28h28v-28h28v-28h-28-28v-28-28h28 28 28v-28h-28-28v-28zm28 140v28h28v-28h-28zm28 0h28 28v-28h-28v-28h-28v28 28zm56 0v28h28 28v-28h-28-28zm-252-56v-28-28h-28v-28h28v-28h-28v-28h-28v28 28 28 28 28h28 28zm0-84v28h28v-28h-28zm28 0h28v-28h-28v28zm28-84h-28v28h28v-28zm-224-28h-28-28v28 28h28v-28h28v-28zm-56 0v-28-28h-28v-28-28-28-28h-28v28 28 28 28 28 28 28 28h28v-28-28h28zm-28-168h28v28h28v-28-28-28h-28v28h-28v28zm28-56v-28h28v-28h-28-28-28v28 28h28 28zm28-56h28v28 28 28h28v-28h28 28v-28h-28-28v-28h28 28 28v-28h-28-28-28v-28h-28-28v-28h-28-28-28v28 28h28v-28h28v28h28v28zm56-56h28 28v-28h-28v-28h-28v28 28zm0-56v-28h28v-28h-28v-28h-28-28-28v-28h-28v28 28h28v28h28v-28h28v28 28h28zm-84-28h-28v28h28v-28zm-28-84v-28h-28v28h28zm112 28h28v-28h28 28v28h28v-28-28h-28-28-28-28-28-28v28h28 28v28zm112 0v28 28h28v28h28v-28-28h28 28v-28h-28v-28-28-28h-28v-28h-28v28 28 28 28h-28zm84-84h28v-28h-28v28zm28 0v28 28 28h28v-28-28h28v28h28v-28-28h-28v-28h-28v28h-28zm84 0h28v-28h-28v28zm28 0v28h28 28v28h28v-28h28v-28-28h-28v28h-28v-28h-28v28h-28zm56 56h-28-28-28v28h-28v28h28v28h28 28v-28h-28v-28h28 28v-28zm-84 84h-28v-28h-28v28 28h28v28 28h28 28v-28-28h-28v-28zm-56 28h-28v-28h-28v28 28h28 28v-28zm-112 0h-28v28h28v-28zm-28 0v-28h-28v28h28zm-28-84h-28-28v28h28 28v-28zm-56 56v28h28v-28h-28zm-28 224v28 28h28v-28h28 28v-28h-28-28-28zm28 56v28h28v-28h-28zm0 28h-28v28h28v-28zm-28 28h-28v28h28v-28zm-28 0v-28-28h-28v28 28h28zm-28 0h-28v28h28v-28zm420 0h28v-28h-28v28zm168 28h28v-28h-28v28zm112 0h28v-28h-28v28zm-56-56v-28h-28v28h28zm-28-84h-28v28h28v-28zm-28 28h-28v28 28h28v-28-28zm-140-504h-28-28v28h28v28h28 28v-28h-28v-28zm-280-56h28v28h-28v-28zm-28 140v28h28v-28h-28zm280 196v28 28h28 28v-28h-28v-28h-28zm56 56v28h28v28 28h28 28v-28-28-28h-28-28-28zm84 84v28h28v-28h-28zm0 28h-28v28h28v-28zm-56-168v28h28v-28h-28zm140 140h28v28h-28v-28zm280 0v28 28h28v-28-28h-28zm-420 112v28h28v-28h-28zm420 0v28h28v-28h-28zm-868 168v28h28 28v-28h-28-28zm672 28h28 28 28v28 28 28h-28-28-28v-28-28-28zm28 28v28h28v-28h-28zm-336 56v28h28v-28h-28zm-280 112v28h28v-28h-28z" stroke-width=".28"/>
  <g stroke-width="1.96">
   <path d="m0 0v29.4 137.2 29.4h29.4 137.2 29.4v-29.4-137.2-29.4h-29.4-137.2-29.4zm29.4 29.4h137.2v137.2h-137.2v-137.2zm26.6 26.6v84h84v-84h-84z"/>
   <path d="m840 0v29.4 137.2 29.4h29.4 137.2 29.4v-29.4-137.2-29.4h-29.4-137.2-29.4zm29.4 29.4h137.2v137.2h-137.2v-137.2zm26.6 26.6v84h84v-84h-84z"/>
   <path d="m0 840v29.4 137.2 29.4h29.4 137.2 29.4v-29.4-137.2-29.4h-29.4-137.2-29.4zm29.4 29.4h137.2v137.2h-137.2v-137.2zm26.6 26.6v84h84v-84h-84z"/>
  </g>
 </g>
</svg>
