<svg width="1606" height="294" viewBox="0 0 1606 294" fill="none" xmlns="http://www.w3.org/2000/svg">
<path d="M297.494 205.383V19.2031H378.17C394.832 19.2031 409.235 21.9328 421.285 27.2979C433.334 32.6631 442.654 40.4755 449.243 50.5469C455.833 60.6183 459.128 72.6664 459.128 86.5028C459.128 100.339 455.833 112.576 449.243 122.553C442.654 132.53 433.334 140.343 421.285 145.802C409.235 151.261 394.832 154.085 378.17 154.085H321.217L340.891 134.695V205.477H297.494V205.383ZM340.797 139.401L321.123 118.882H375.628C388.713 118.882 398.692 116.058 405.47 110.411C412.247 104.763 415.542 96.7625 415.542 86.5028C415.542 76.2432 412.153 68.2425 405.47 62.6891C398.692 57.1357 388.807 54.3119 375.628 54.3119H321.123L340.797 33.7926V139.401Z" fill="#202632"/>
<path d="M536.416 207.546C524.366 207.546 513.729 205.287 504.503 200.675C495.278 196.063 488.123 189.003 482.946 179.403C477.768 169.802 475.227 157.754 475.227 143.258V62.3105H516.741V136.858C516.741 148.906 519.283 157.754 524.366 163.307C529.45 168.861 536.604 171.684 545.829 171.684C552.231 171.684 557.879 170.272 562.868 167.449C567.858 164.625 571.811 160.389 574.73 154.648C577.648 149 579.154 141.847 579.154 133.375V62.3105H620.386V205.475H581.037V165.849L588.191 177.52C583.202 187.497 576.142 194.933 566.916 200.016C557.691 205.099 547.618 207.64 536.604 207.64L536.416 207.546Z" fill="#202632"/>
<path d="M645.52 205.382V62.311H685.151V103.067L679.597 91.1134C683.833 81.042 690.705 73.3237 700.119 68.0526C709.533 62.7816 720.923 60.2402 734.479 60.2402V98.8317C732.879 98.4552 731.373 98.1728 729.772 98.0787C728.266 97.8904 726.76 97.7963 725.348 97.7963C713.675 97.7963 704.355 101.091 697.389 107.679C690.423 114.268 687.034 124.34 687.034 137.988V205.57H645.52V205.382Z" fill="#202632"/>
<path d="M815.626 207.547C799.34 207.547 785.031 204.346 772.793 197.946C760.555 191.545 751.047 182.792 744.364 171.779C737.586 160.672 734.291 148.059 734.291 133.846C734.291 119.633 737.492 106.926 743.987 95.8197C750.483 84.6187 759.52 75.8651 771.099 69.6528C782.678 63.3464 795.763 60.2402 810.354 60.2402C824.945 60.2402 836.995 63.2523 848.291 69.2763C859.588 75.3003 868.437 83.8657 875.026 94.7843C881.616 105.703 884.911 118.975 884.911 134.411C884.911 136.011 884.911 137.8 884.628 139.87C884.44 141.941 884.252 143.824 884.063 145.612H767.804V121.422H862.318L846.126 128.575C846.314 121.139 844.902 114.645 841.89 109.185C838.877 103.726 834.735 99.3964 829.37 96.2903C824.004 93.1842 817.885 91.6781 810.73 91.6781C803.576 91.6781 797.363 93.2783 791.997 96.2903C786.537 99.3964 782.395 103.726 779.383 109.374C776.37 115.021 774.864 121.61 774.864 129.234V135.635C774.864 143.635 776.653 150.507 780.23 156.437C783.807 162.272 788.608 166.79 794.821 169.896C801.034 173.003 808.471 174.509 817.226 174.509C824.663 174.509 831.252 173.379 837.089 171.026C842.831 168.767 848.103 165.284 852.904 160.672L875.026 184.58C868.437 192.016 860.247 197.758 850.268 201.711C840.29 205.664 828.899 207.735 815.908 207.735L815.626 207.547Z" fill="#202632"/>
<path d="M1010.39 207.265C995.521 207.265 982.248 204.159 970.575 197.852C958.902 191.546 949.865 182.98 943.275 172.062C936.685 161.143 933.391 148.625 933.391 134.412C933.391 120.199 936.685 107.492 943.275 96.6674C949.865 85.843 958.902 77.2776 970.575 70.9711C982.248 64.6647 995.427 61.5586 1010.39 61.5586C1024.04 61.5586 1036.19 64.3824 1046.83 70.0299C1057.46 75.6774 1065.47 83.9605 1070.74 94.7849L1045.41 109.657C1041.18 103.068 1036 98.1734 1029.88 94.879C1023.76 91.5846 1017.17 89.9845 1010.02 89.9845C1001.83 89.9845 994.486 91.7729 987.896 95.4438C981.306 99.1147 976.223 104.197 972.458 110.88C968.692 117.563 966.903 125.376 966.903 134.412C966.903 143.448 968.786 151.354 972.458 158.131C976.223 164.908 981.306 170.085 987.896 173.662C994.486 177.333 1001.83 179.121 1010.02 179.121C1017.08 179.121 1023.76 177.521 1029.88 174.227C1036 170.932 1041.18 165.944 1045.41 159.167L1070.74 174.039C1065.37 184.675 1057.46 192.864 1046.83 198.699C1036.19 204.535 1024.04 207.359 1010.39 207.359V207.265Z" fill="#202632"/>
<path d="M1165.81 61.4652C1177.3 61.4652 1187.47 63.7242 1196.32 68.1481C1205.07 72.572 1212.13 79.4432 1217.31 88.6675C1222.58 97.8918 1225.12 109.657 1225.12 124.059V205.477H1191.89V128.294C1191.89 115.682 1188.97 106.269 1183.14 100.057C1177.3 93.8444 1168.92 90.7383 1158.1 90.7383C1150.28 90.7383 1143.32 92.3384 1137.29 95.5387C1131.27 98.7389 1126.56 103.445 1123.36 109.752C1120.06 116.058 1118.46 123.965 1118.46 133.565V205.383H1085.52V8.00195H1118.46V101.939L1111.5 89.9853C1116.3 80.9492 1123.45 73.8898 1132.96 68.9953C1142.47 64.0066 1153.39 61.5594 1165.81 61.5594V61.4652Z" fill="#202632"/>
<path d="M1297.04 207.265C1286.4 207.265 1277.08 205.476 1269.08 201.806C1261.08 198.135 1254.96 193.146 1250.63 186.651C1246.3 180.157 1244.14 172.815 1244.14 164.72C1244.14 156.625 1246.02 149.566 1249.88 143.165C1253.74 136.765 1259.95 131.682 1268.61 128.011C1277.27 124.246 1288.85 122.458 1303.25 122.458H1344.49V144.577H1305.61C1294.41 144.577 1286.88 146.366 1282.83 150.037C1278.87 153.707 1276.8 158.225 1276.8 163.779C1276.8 169.615 1279.16 174.321 1283.96 177.898C1288.76 181.474 1295.44 183.263 1303.91 183.263C1312.39 183.263 1319.35 181.38 1325.85 177.709C1332.34 173.944 1337.05 168.485 1340.06 161.237L1345.33 181.192C1342.13 189.569 1336.49 195.97 1328.3 200.582C1320.11 205.194 1309.66 207.453 1296.85 207.453L1297.04 207.265ZM1341.76 205.382V176.392L1340.16 170.556V120.293C1340.16 110.504 1337.14 102.974 1331.21 97.5145C1325.28 92.1494 1316.25 89.4197 1304.2 89.4197C1296.38 89.4197 1288.66 90.6434 1281.04 93.1848C1273.41 95.632 1266.82 99.1147 1261.36 103.539L1248.28 79.3483C1256.09 73.5125 1265.22 69.0886 1275.67 66.0766C1286.12 63.0646 1297.04 61.5586 1308.43 61.5586C1329.24 61.5586 1345.15 66.5472 1356.35 76.4304C1367.55 86.4077 1373.1 101.656 1373.1 122.175V205.476H1341.66L1341.76 205.382Z" fill="#202632"/>
<path d="M1419.23 39.9092C1413.02 39.9092 1407.94 37.9326 1403.98 34.0734C1400.03 30.2143 1397.96 25.4139 1397.96 19.6722C1397.96 14.3071 1399.93 9.69493 1403.98 5.83578C1408.03 1.97664 1413.11 0 1419.23 0C1425.35 0 1430.53 1.78838 1434.58 5.45928C1438.62 9.13017 1440.6 13.7423 1440.6 19.3899C1440.6 25.0374 1438.62 29.9319 1434.76 33.8852C1430.91 37.8384 1425.73 39.9092 1419.33 39.9092H1419.23ZM1402.66 205.382V63.3465H1435.61V205.476H1402.66V205.382Z" fill="#202632"/>
<path d="M1546.69 61.4648C1558.18 61.4648 1568.35 63.7239 1577.19 68.1477C1586.04 72.5716 1593.01 79.4428 1598.19 88.6671C1603.36 97.8914 1606 109.657 1606 124.058V205.477H1572.77V128.294C1572.77 115.681 1569.85 106.269 1564.02 100.056C1558.18 93.844 1549.8 90.7379 1538.97 90.7379C1531.16 90.7379 1524.29 92.338 1518.17 95.5383C1512.15 98.7385 1507.44 103.445 1504.24 109.751C1501.04 116.058 1499.34 123.964 1499.34 133.565V205.383H1466.3V63.3474H1497.93V101.939L1492.38 89.9849C1497.18 80.9488 1504.33 73.8894 1513.84 68.9949C1523.35 64.0062 1534.27 61.559 1546.69 61.559V61.4648Z" fill="#202632"/>
<path d="M136.517 101.653L103.758 269.384C102.44 275.973 98.6741 281.903 93.4966 286.233C88.319 290.563 81.8236 293.198 75.234 293.198C27.4123 293.104 -4.78266 256.207 0.583164 209.238C0.583164 208.768 0.583164 208.297 0.771438 207.826C0.959713 205.756 1.33626 203.685 1.71281 201.614L3.50142 192.672C5.4783 186.366 8.49069 180.342 12.162 174.6C45.0159 124.149 136.611 101.559 136.611 101.559L136.517 101.653Z" fill="url(#paint0_linear_213_110)"/>
<path d="M136.517 101.652L120.985 181.377C114.019 180.435 107.052 179.965 99.8979 179.965C66.6675 179.965 32.025 190.13 0.67733 209.332C0.583193 209.332 0.394918 209.52 0.300781 209.52L0.865605 207.92L12.2562 174.788C45.1101 124.337 136.706 101.746 136.706 101.746L136.517 101.652Z" fill="url(#paint1_linear_213_110)"/>
<path d="M231.22 1.31445H76.1758C56.6894 1.31445 37.8619 17.1275 34.0023 36.6115L8.96179 164.905L0.207031 209.52C36.1674 180.906 79.4706 164.905 121.267 164.905H199.213C218.699 164.905 237.621 149.091 241.387 129.608L259.555 36.6115C263.321 17.1275 250.612 1.31445 231.126 1.31445H231.22Z" fill="url(#paint2_linear_213_110)"/>
<defs>
<linearGradient id="paint0_linear_213_110" x1="41.1563" y1="197.378" x2="156.38" y2="197.378" gradientUnits="userSpaceOnUse">
<stop stop-color="#1B69FF"/>
<stop offset="1" stop-color="#43D2FF"/>
</linearGradient>
<linearGradient id="paint1_linear_213_110" x1="35.7905" y1="97.1343" x2="188.84" y2="239.095" gradientUnits="userSpaceOnUse">
<stop stop-color="#122CA5"/>
<stop offset="1" stop-color="#12247F"/>
</linearGradient>
<linearGradient id="paint2_linear_213_110" x1="25.3417" y1="42.9179" x2="207.487" y2="141.486" gradientUnits="userSpaceOnUse">
<stop stop-color="#1B05BE"/>
<stop offset="1" stop-color="#438BFF"/>
</linearGradient>
</defs>
</svg>
