<?xml version="1.0" encoding="UTF-8" standalone="no"?>
<svg
   width="1710.5625"
   height="303.54449"
   viewBox="0 0 1710.5625 303.54449"
   fill="none"
   version="1.1"
   id="svg2658"
   sodipodi:docname="PureSeries.svg"
   inkscape:version="1.2.2 (732a01da63, 2022-12-09)"
   xmlns:inkscape="http://www.inkscape.org/namespaces/inkscape"
   xmlns:sodipodi="http://sodipodi.sourceforge.net/DTD/sodipodi-0.dtd"
   xmlns="http://www.w3.org/2000/svg"
   xmlns:svg="http://www.w3.org/2000/svg">
  <sodipodi:namedview
     id="namedview2660"
     pagecolor="#505050"
     bordercolor="#eeeeee"
     borderopacity="1"
     inkscape:showpageshadow="0"
     inkscape:pageopacity="0"
     inkscape:pagecheckerboard="0"
     inkscape:deskcolor="#505050"
     showgrid="false"
     showguides="true"
     inkscape:zoom="0.39601494"
     inkscape:cx="1021.4261"
     inkscape:cy="638.86478"
     inkscape:window-width="1920"
     inkscape:window-height="1057"
     inkscape:window-x="-8"
     inkscape:window-y="-8"
     inkscape:window-maximized="1"
     inkscape:current-layer="layer1">
    <sodipodi:guide
       position="301.06511,280.29917"
       orientation="0,-1"
       id="guide2830"
       inkscape:locked="false" />
    <sodipodi:guide
       position="301.06511,94.025276"
       orientation="0,-1"
       id="guide2832"
       inkscape:locked="false" />
    <sodipodi:guide
       position="936.9621,165.09028"
       orientation="1,0"
       id="guide2834"
       inkscape:locked="false" />
  </sodipodi:namedview>
  <defs
     id="defs2656">
    <linearGradient
       id="paint0_linear_213_110"
       x1="41.1563"
       y1="197.37801"
       x2="156.38"
       y2="197.37801"
       gradientUnits="userSpaceOnUse"
       gradientTransform="translate(3.5711116,4.0422175)">
      <stop
         stop-color="#1B69FF"
         id="stop2641" />
      <stop
         offset="1"
         stop-color="#43D2FF"
         id="stop2643" />
    </linearGradient>
    <linearGradient
       id="paint1_linear_213_110"
       x1="35.790501"
       y1="97.1343"
       x2="188.84"
       y2="239.095"
       gradientUnits="userSpaceOnUse"
       gradientTransform="translate(3.5711116,4.0422175)">
      <stop
         stop-color="#122CA5"
         id="stop2646" />
      <stop
         offset="1"
         stop-color="#12247F"
         id="stop2648" />
    </linearGradient>
    <linearGradient
       id="paint2_linear_213_110"
       x1="25.3417"
       y1="42.9179"
       x2="207.487"
       y2="141.48599"
       gradientUnits="userSpaceOnUse"
       gradientTransform="translate(3.5711116,4.0422175)">
      <stop
         stop-color="#1B05BE"
         id="stop2651" />
      <stop
         offset="1"
         stop-color="#438BFF"
         id="stop2653" />
    </linearGradient>
    <clipPath
       id="clip0_214_576">
      <rect
         width="1697"
         height="294"
         fill="#ffffff"
         id="rect45"
         x="0"
         y="0" />
    </clipPath>
    <linearGradient
       id="paint0_linear_214_576"
       x1="41.238899"
       y1="197.58"
       x2="157.28"
       y2="197.58"
       gradientUnits="userSpaceOnUse">
      <stop
         stop-color="#1B69FF"
         id="stop30" />
      <stop
         offset="1"
         stop-color="#43D2FF"
         id="stop32" />
    </linearGradient>
    <linearGradient
       id="paint1_linear_214_576"
       x1="35.8349"
       y1="96.610397"
       x2="189.992"
       y2="239.48"
       gradientUnits="userSpaceOnUse">
      <stop
         stop-color="#122CA5"
         id="stop35" />
      <stop
         offset="1"
         stop-color="#12247F"
         id="stop37" />
    </linearGradient>
    <linearGradient
       id="paint2_linear_214_576"
       x1="25.2178"
       y1="42"
       x2="208.76199"
       y2="141.16299"
       gradientUnits="userSpaceOnUse">
      <stop
         stop-color="#1B05BE"
         id="stop40" />
      <stop
         offset="1"
         stop-color="#438BFF"
         id="stop42" />
    </linearGradient>
    <linearGradient
       id="paint0_linear_214_576-3"
       x1="41.238899"
       y1="197.58"
       x2="157.28"
       y2="197.58"
       gradientUnits="userSpaceOnUse"
       gradientTransform="translate(1.81511,4.763969)">
      <stop
         stop-color="#1B69FF"
         id="stop30-8" />
      <stop
         offset="1"
         stop-color="#43D2FF"
         id="stop32-5" />
    </linearGradient>
    <linearGradient
       id="paint1_linear_214_576-7"
       x1="35.8349"
       y1="96.610397"
       x2="189.992"
       y2="239.48"
       gradientUnits="userSpaceOnUse"
       gradientTransform="translate(1.81511,4.763969)">
      <stop
         stop-color="#122CA5"
         id="stop35-4" />
      <stop
         offset="1"
         stop-color="#12247F"
         id="stop37-3" />
    </linearGradient>
    <linearGradient
       id="paint2_linear_214_576-6"
       x1="25.2178"
       y1="42"
       x2="208.76199"
       y2="141.16299"
       gradientUnits="userSpaceOnUse"
       gradientTransform="translate(1.81511,4.763969)">
      <stop
         stop-color="#1B05BE"
         id="stop40-2" />
      <stop
         offset="1"
         stop-color="#438BFF"
         id="stop42-9" />
    </linearGradient>
    <clipPath
       clipPathUnits="userSpaceOnUse"
       id="clipPath4014">
      <g
         id="g4018">
        <rect
           width="1697"
           height="294"
           fill="#ffffff"
           id="rect4016"
           x="1.81511"
           y="4.7639689" />
      </g>
    </clipPath>
    <clipPath
       clipPathUnits="userSpaceOnUse"
       id="clipPath4020">
      <g
         id="g4024">
        <rect
           width="1697"
           height="294"
           fill="#ffffff"
           id="rect4022"
           x="1.81511"
           y="4.7639689" />
      </g>
    </clipPath>
    <clipPath
       clipPathUnits="userSpaceOnUse"
       id="clipPath4026">
      <g
         id="g4030">
        <rect
           width="1697"
           height="294"
           fill="#ffffff"
           id="rect4028"
           x="1.81511"
           y="4.7639689" />
      </g>
    </clipPath>
    <clipPath
       clipPathUnits="userSpaceOnUse"
       id="clipPath4032">
      <g
         id="g4036">
        <rect
           width="1697"
           height="294"
           fill="#ffffff"
           id="rect4034"
           x="1.81511"
           y="4.7639689" />
      </g>
    </clipPath>
    <clipPath
       clipPathUnits="userSpaceOnUse"
       id="clipPath4038">
      <g
         id="g4042">
        <rect
           width="1697"
           height="294"
           fill="#ffffff"
           id="rect4040"
           x="1.81511"
           y="4.7639689" />
      </g>
    </clipPath>
    <clipPath
       clipPathUnits="userSpaceOnUse"
       id="clipPath4044">
      <g
         id="g4048">
        <rect
           width="1697"
           height="294"
           fill="#ffffff"
           id="rect4046"
           x="1.81511"
           y="4.7639689" />
      </g>
    </clipPath>
    <clipPath
       clipPathUnits="userSpaceOnUse"
       id="clipPath4050">
      <g
         id="g4054">
        <rect
           width="1697"
           height="294"
           fill="#ffffff"
           id="rect4052"
           x="1.81511"
           y="4.7639689" />
      </g>
    </clipPath>
    <clipPath
       clipPathUnits="userSpaceOnUse"
       id="clipPath4056">
      <g
         id="g4060">
        <rect
           width="1697"
           height="294"
           fill="#ffffff"
           id="rect4058"
           x="1.81511"
           y="4.7639689" />
      </g>
    </clipPath>
    <clipPath
       clipPathUnits="userSpaceOnUse"
       id="clipPath4062">
      <g
         id="g4066">
        <rect
           width="1697"
           height="294"
           fill="#ffffff"
           id="rect4064"
           x="1.81511"
           y="4.7639689" />
      </g>
    </clipPath>
    <clipPath
       clipPathUnits="userSpaceOnUse"
       id="clipPath4068">
      <g
         id="g4072">
        <rect
           width="1697"
           height="294"
           fill="#ffffff"
           id="rect4070"
           x="1.81511"
           y="4.7639689" />
      </g>
    </clipPath>
    <clipPath
       clipPathUnits="userSpaceOnUse"
       id="clipPath4074">
      <g
         id="g4078">
        <rect
           width="1697"
           height="294"
           fill="#ffffff"
           id="rect4076"
           x="1.81511"
           y="4.7639689" />
      </g>
    </clipPath>
    <clipPath
       clipPathUnits="userSpaceOnUse"
       id="clipPath4080">
      <g
         id="g4084">
        <rect
           width="1697"
           height="294"
           fill="#ffffff"
           id="rect4082"
           x="1.81511"
           y="4.7639689" />
      </g>
    </clipPath>
    <clipPath
       clipPathUnits="userSpaceOnUse"
       id="clipPath4086">
      <g
         id="g4090">
        <rect
           width="1697"
           height="294"
           fill="#ffffff"
           id="rect4088"
           x="1.81511"
           y="4.7639689" />
      </g>
    </clipPath>
  </defs>
  <g
     id="g3794"
     style="display:inline">
    <path
       id="path3492"
       style="font-weight:500;font-size:259.885px;line-height:1.25;font-family:Montserrat;-inkscape-font-specification:'Montserrat Medium';text-align:end;text-orientation:upright;text-anchor:end;fill:#202632;fill-opacity:1;stroke-width:12.1821;stroke-linecap:round;paint-order:markers stroke fill;stop-color:#000000"
       d="m 1504.0312,68.402344 c -13.1673,0 -25.0368,3.031731 -35.6054,9.095703 -10.3954,5.890715 -18.6235,14.207322 -24.6875,24.949223 -5.8907,10.74188 -8.836,22.78231 -8.836,36.12304 0,13.514 3.0319,25.64288 9.0957,36.38477 6.2373,10.74189 14.9864,19.14502 26.2481,25.20898 11.2617,5.89072 24.1691,8.83594 38.7227,8.83594 11.4348,0 21.7431,-1.90711 30.9257,-5.71875 9.3559,-3.81164 17.1534,-9.35605 23.3907,-16.63281 l -13.7735,-16.11133 c -10.0489,11.08841 -23.3043,16.63281 -39.7637,16.63281 -13.5139,0 -24.8623,-3.63925 -34.0449,-10.91601 -9.0093,-7.45003 -14.2942,-17.23925 -15.8535,-29.36719 h 111.752 c 0.3465,-3.11862 0.5195,-5.63129 0.5195,-7.53711 0,-13.86051 -2.9452,-26.16046 -8.8359,-36.90234 -5.7175,-10.741901 -13.7746,-19.058508 -24.17,-24.949223 -10.2221,-6.063972 -21.9165,-9.095703 -35.084,-9.095703 z m 0,21.050781 c 11.9547,0 21.917,3.72381 29.8868,11.173825 8.143,7.27678 12.9069,16.71995 14.2929,28.32813 h -88.3613 c 1.3861,-11.78143 6.0654,-21.31113 14.0352,-28.58789 8.143,-7.27677 18.1919,-10.914065 30.1464,-10.914065 z" />
    <path
       id="path3488"
       style="font-weight:500;font-size:259.885px;line-height:1.25;font-family:Montserrat;-inkscape-font-specification:'Montserrat Medium';text-align:end;text-orientation:upright;text-anchor:end;fill:#202632;fill-opacity:1;stroke-width:12.1821;stroke-linecap:round;paint-order:markers stroke fill;stop-color:#000000"
       d="m 1167.7402,68.402344 c -13.1675,0 -25.0348,3.031731 -35.6035,9.095703 -10.3954,5.890715 -18.6255,14.207322 -24.6894,24.949223 -5.8908,10.74188 -8.836,22.78231 -8.836,36.12304 0,13.514 3.0318,25.64288 9.0957,36.38477 6.2373,10.74189 14.9864,19.14502 26.2481,25.20898 11.2617,5.89072 24.1691,8.83594 38.7226,8.83594 11.435,0 21.7432,-1.90711 30.9258,-5.71875 9.3559,-3.81164 17.1534,-9.35605 23.3906,-16.63281 l -13.7734,-16.11133 c -10.0489,11.08841 -23.3043,16.63281 -39.7637,16.63281 -13.514,0 -24.8623,-3.63925 -34.0449,-10.91601 -9.0093,-7.45003 -14.2922,-17.23925 -15.8516,-29.36719 h 111.75 c 0.3466,-3.11862 0.5196,-5.63129 0.5196,-7.53711 0,-13.86051 -2.9452,-26.16046 -8.836,-36.90234 -5.7174,-10.741901 -13.7745,-19.058508 -24.1699,-24.949223 -10.2221,-6.063972 -21.9165,-9.095703 -35.084,-9.095703 z m 0,21.050781 c 11.9547,0 21.917,3.72381 29.8868,11.173825 8.1429,7.27678 12.9069,16.71995 14.2929,28.32813 h -88.3594 c 1.3861,-11.78143 6.0635,-21.31113 14.0333,-28.58789 8.1429,-7.27677 18.1917,-10.914065 30.1464,-10.914065 z" />
    <path
       d="M 301.06511,209.42522 V 23.245318 h 80.676 c 16.662,0 31.065,2.7297 43.115,8.0948 12.049,5.3652 21.369,13.1776 27.958,23.249 6.59,10.0714 9.885,22.1195 9.885,35.9559 0,13.836202 -3.295,26.073202 -9.885,36.050202 -6.589,9.977 -15.909,17.79 -27.958,23.249 -12.05,5.459 -26.453,8.283 -43.115,8.283 h -56.953 l 19.674,-19.39 v 70.782 h -43.397 z m 43.303,-65.982 -19.674,-20.519 h 54.505 c 13.085,0 23.064,-2.824 29.842,-8.471 6.777,-5.648 10.072,-13.6485 10.072,-23.908202 0,-10.2596 -3.389,-18.2603 -10.072,-23.8137 -6.778,-5.5534 -16.663,-8.3772 -29.842,-8.3772 h -54.505 l 19.674,-20.5193 z"
       fill="#202632"
       id="path2617" />
    <path
       d="m 539.98711,211.58822 c -12.05,0 -22.687,-2.259 -31.913,-6.871 -9.225,-4.612 -16.38,-11.672 -21.557,-21.272 -5.178,-9.601 -7.719,-21.649 -7.719,-36.145 V 66.352718 h 41.514 v 74.547502 c 0,12.048 2.542,20.896 7.625,26.449 5.084,5.554 12.238,8.377 21.463,8.377 6.402,0 12.05,-1.412 17.039,-4.235 4.99,-2.824 8.943,-7.06 11.862,-12.801 2.918,-5.648 4.424,-12.801 4.424,-21.273 V 66.352718 h 41.232 V 209.51722 h -39.349 v -39.626 l 7.154,11.671 c -4.989,9.977 -12.049,17.413 -21.275,22.496 -9.225,5.083 -19.298,7.624 -30.312,7.624 z"
       fill="#202632"
       id="path2619" />
    <path
       d="M 649.09111,209.42422 V 66.353218 h 39.631 v 40.756002 l -5.554,-11.953602 c 4.236,-10.0714 11.108,-17.7897 20.522,-23.0608 9.414,-5.271 20.804,-7.8124 34.36,-7.8124 v 38.591502 c -1.6,-0.3765 -3.106,-0.6589 -4.707,-0.753 -1.506,-0.1883 -3.012,-0.2824 -4.424,-0.2824 -11.673,0 -20.993,3.2947 -27.959,9.8827 -6.966,6.589 -10.355,16.661 -10.355,30.309 v 67.582 h -41.514 z"
       fill="#202632"
       id="path2621" />
    <path
       d="m 819.19711,211.58922 c -16.286,0 -30.595,-3.201 -42.833,-9.601 -12.238,-6.401 -21.746,-15.154 -28.429,-26.167 -6.778,-11.107 -10.073,-23.72 -10.073,-37.933 0,-14.213 3.201,-26.92 9.696,-38.026302 6.496,-11.201 15.533,-19.9546 27.112,-26.1669 11.579,-6.3064 24.664,-9.4126 39.255,-9.4126 14.591,0 26.641,3.0121 37.937,9.0361 11.297,6.024 20.146,14.5894 26.735,25.508 6.59,10.918702 9.885,24.190702 9.885,39.626702 0,1.6 0,3.389 -0.283,5.459 -0.188,2.071 -0.376,3.954 -0.565,5.742 h -116.259 v -24.19 h 94.514 l -16.192,7.153 c 0.188,-7.436 -1.224,-13.93 -4.236,-19.39 -3.013,-5.459 -7.155,-9.7886 -12.52,-12.8947 -5.366,-3.106102 -11.485,-4.612202 -18.64,-4.612202 -7.154,0 -13.367,1.6002 -18.733,4.612202 -5.46,3.1061 -9.602,7.4357 -12.614,13.0837 -3.013,5.647 -4.519,12.236 -4.519,19.86 v 6.401 c 0,8 1.789,14.872 5.366,20.802 3.577,5.835 8.378,10.353 14.591,13.459 6.213,3.107 13.65,4.613 22.405,4.613 7.437,0 14.026,-1.13 19.863,-3.483 5.742,-2.259 11.014,-5.742 15.815,-10.354 l 22.122,23.908 c -6.589,7.436 -14.779,13.178 -24.758,17.131 -9.978,3.953 -21.369,6.024 -34.36,6.024 z"
       fill="#202632"
       id="path2623" />
    <path
       d="m 140.08811,105.69522 -32.759,167.731 c -1.318,6.589 -5.0839,12.519 -10.261398,16.849 -5.1776,4.33 -11.673,6.965 -18.2626,6.965 -47.8217,-0.094 -80.0166604,-36.991 -74.6508364,-83.96 0,-0.47 0,-0.941 0.188274,-1.412 0.188275,-2.07 0.564822,-4.141 0.941372,-6.212 l 1.78861,-8.942 c 1.97688,-6.306 4.9892704,-12.33 8.6605804,-18.072 32.8539,-50.451 124.448998,-73.041 124.448998,-73.041 z"
       fill="url(#paint0_linear_213_110)"
       id="path2635"
       style="fill:url(#paint0_linear_213_110)" />
    <path
       d="m 140.08811,105.69422 -15.532,79.725 c -6.966,-0.942 -13.933,-1.412 -21.0871,-1.412 -33.230398,0 -67.872898,10.165 -99.2205684,29.367 -0.094137,0 -0.282412,0.188 -0.376549,0.188 l 0.564824,-1.6 11.3905954,-33.132 c 32.8539,-50.451 124.449798,-73.042 124.449798,-73.042 z"
       fill="url(#paint1_linear_213_110)"
       id="path2637"
       style="fill:url(#paint1_linear_213_110)" />
    <path
       d="M 234.79111,5.3566675 H 79.746912 c -19.4864,0 -38.3139,15.8130505 -42.1735,35.2970505 l -25.04051,128.293502 -8.7547594,44.615 c 35.9603694,-28.614 79.2635694,-44.615 121.0599674,-44.615 h 77.946 c 19.486,0 38.408,-15.814 42.174,-35.297 l 18.168,-92.996502 c 3.766,-19.484 -8.943,-35.2970505 -28.429,-35.2970505 z"
       fill="url(#paint2_linear_213_110)"
       id="path2639"
       style="fill:url(#paint2_linear_213_110)" />
    <path
       style="font-weight:500;font-size:259.885px;line-height:1.25;font-family:Montserrat;-inkscape-font-specification:'Montserrat Medium';text-align:end;text-orientation:upright;text-anchor:end;fill:#202632;fill-opacity:1;stroke-width:12.1821;stroke-linecap:round;paint-order:markers stroke fill;stop-color:#000000"
       d="M 1375.1289,69.701172 V 207.43945 h 24.9473 V 69.701172 Z"
       id="path3496" />
    <path
       style="font-weight:500;font-size:259.885px;line-height:1.25;font-family:Montserrat;-inkscape-font-specification:'Montserrat Medium';text-align:end;text-orientation:upright;text-anchor:end;fill:#202632;fill-opacity:1;stroke-width:12.1821;stroke-linecap:round;paint-order:markers stroke fill;stop-color:#000000"
       d="m 1651.125,68.402344 c -17.4989,0 -31.4445,3.810308 -41.8398,11.433594 -10.3954,7.450029 -15.5938,17.41225 -15.5938,29.886722 0,9.70236 2.5127,17.24037 7.5371,22.61132 5.0245,5.37096 11.0014,9.18126 17.9317,11.4336 7.1035,2.25233 16.1986,4.24595 27.2871,5.97851 8.143,1.38606 14.3814,2.68565 18.7129,3.89844 4.5046,1.03954 8.2284,2.77168 11.1738,5.19727 2.9453,2.42559 4.418,5.71684 4.418,9.875 0,12.47446 -10.9139,18.71289 -32.7442,18.71289 -8.8361,0 -17.5872,-1.29959 -26.25,-3.89844 -8.6628,-2.59885 -16.0259,-6.06507 -22.0898,-10.39648 l -10.3946,19.75195 c 5.8908,4.67792 14.0343,8.57669 24.4297,11.69531 10.3954,2.94536 21.2227,4.41797 32.4844,4.41797 18.3652,0 32.8317,-3.63924 43.4004,-10.91602 10.7419,-7.45003 16.1133,-17.41225 16.1133,-29.88671 0,-9.35586 -2.4242,-16.63239 -7.2754,-21.83008 -4.8512,-5.1977 -10.7436,-8.83694 -17.6738,-10.91602 -6.7571,-2.25233 -15.6792,-4.3305 -26.7676,-6.23633 -8.3163,-1.5593 -14.8143,-2.9454 -19.4922,-4.1582 -4.5047,-1.21279 -8.315,-3.11795 -11.4336,-5.7168 -3.1186,-2.59884 -4.6777,-6.15158 -4.6777,-10.65625 0,-5.71746 2.7722,-10.308304 8.3164,-13.773434 5.5442,-3.46513 13.5993,-5.197265 24.1679,-5.197265 15.2466,0 28.502,3.637289 39.7637,10.914059 l 10.6543,-19.749997 c -5.8907,-3.811643 -13.4268,-6.845322 -22.6094,-9.097656 -9.1826,-2.252335 -18.3662,-3.376953 -27.5488,-3.376953 z"
       id="path3494" />
    <path
       style="font-weight:500;font-size:259.885px;line-height:1.25;font-family:Montserrat;-inkscape-font-specification:'Montserrat Medium';text-align:end;text-orientation:upright;text-anchor:end;fill:#202632;fill-opacity:1;stroke-width:12.1821;stroke-linecap:round;paint-order:markers stroke fill;stop-color:#000000"
       d="m 1344.4609,68.402344 c -12.1279,0 -22.4362,2.078172 -30.9257,6.236328 -8.4896,4.158156 -14.8991,10.221607 -19.2305,18.191406 V 69.701172 h -23.9102 V 207.43945 h 24.9493 v -68.60937 c 0,-14.90006 3.8122,-26.33489 11.4355,-34.30469 7.7965,-8.143055 18.4508,-12.214843 31.9648,-12.214843 2.4256,0 4.3308,0.08651 5.7168,0.259765 z"
       id="path3490" />
    <path
       style="font-weight:500;font-size:259.885px;line-height:1.25;font-family:Montserrat;-inkscape-font-specification:'Montserrat Medium';text-align:end;text-orientation:upright;text-anchor:end;fill:#202632;fill-opacity:1;stroke-width:12.1821;stroke-linecap:round;paint-order:markers stroke fill;stop-color:#000000"
       d="m 1025.584,68.402344 c -17.4989,0 -31.44642,3.810308 -41.84181,11.433594 -10.39539,7.450029 -15.59375,17.41225 -15.59375,29.886722 0,9.70236 2.51267,17.24037 7.53711,22.61132 5.02444,5.37096 11.00138,9.18126 17.93164,11.4336 7.10351,2.25233 16.19871,4.24595 27.28711,5.97851 8.1431,1.38606 14.3815,2.68565 18.7129,3.89844 4.5047,1.03954 8.2304,2.77168 11.1758,5.19727 2.9453,2.42559 4.4179,5.71684 4.4179,9.875 0,12.47446 -10.9157,18.71289 -32.7461,18.71289 -8.836,0 -17.5852,-1.29959 -26.248,-3.89844 -8.66283,-2.59885 -16.02782,-6.06507 -22.0918,-10.39648 l -10.39453,19.75195 c 5.89072,4.67792 14.0343,8.57669 24.42969,11.69531 10.39539,2.94536 21.22274,4.41797 32.48434,4.41797 18.3652,0 32.8337,-3.63924 43.4024,-10.91602 10.7419,-7.45003 16.1113,-17.41225 16.1113,-29.88671 0,-9.35586 -2.4242,-16.63239 -7.2754,-21.83008 -4.8512,-5.1977 -10.7416,-8.83694 -17.6719,-10.91602 -6.757,-2.25233 -15.6811,-4.3305 -26.7695,-6.23633 -8.3163,-1.5593 -14.8123,-2.9454 -19.4902,-4.1582 -4.5047,-1.21279 -8.317,-3.11795 -11.43558,-5.7168 -3.11861,-2.59884 -4.67773,-6.15158 -4.67773,-10.65625 0,-5.71746 2.7722,-10.308304 8.31641,-13.773434 5.5442,-3.46513 13.6013,-5.197265 24.1699,-5.197265 15.2466,0 28.5001,3.637289 39.7617,10.914059 l 10.6543,-19.749997 c -5.8907,-3.811643 -13.4267,-6.845322 -22.6093,-9.097656 -9.1826,-2.252335 -18.3643,-3.376953 -27.5469,-3.376953 z"
       id="path3486" />
    <path
       style="font-weight:500;font-size:259.885px;line-height:1.25;font-family:Montserrat;-inkscape-font-specification:'Montserrat Medium';text-align:end;text-orientation:upright;text-anchor:end;fill:#202632;fill-opacity:1;stroke-width:12.1821;stroke-linecap:round;paint-order:markers stroke fill;stop-color:#000000"
       d="m 1387.6035,10.707031 c -4.8512,0 -8.923,1.645627 -12.2148,4.9375 -3.1186,3.118617 -4.6778,6.930878 -4.6778,11.435547 0,4.504669 1.5592,8.31693 4.6778,11.435547 3.2918,3.118617 7.3636,4.677734 12.2148,4.677734 4.8512,0 8.8345,-1.559117 11.9531,-4.677734 3.2919,-3.291873 4.9395,-7.277153 4.9395,-11.955078 0,-4.504669 -1.6476,-8.230421 -4.9395,-11.175781 -3.1186,-3.118617 -7.1019,-4.677735 -11.9531,-4.677735 z"
       id="text2781" />
  </g>
  <g
     inkscape:groupmode="layer"
     id="layer1"
     inkscape:label="Layer 1" />
</svg>
