<svg width="1710.6" height="303.54" fill="none" version="1.1" viewBox="0 0 1710.6 303.54" xmlns="http://www.w3.org/2000/svg">
				<defs>
								<linearGradient id="paint0_linear_213_110" x1="41.156" x2="156.38" y1="197.38" y2="197.38" gradientTransform="translate(3.5711 4.0422)" gradientUnits="userSpaceOnUse">
												<stop stop-color="#1B69FF" offset="0"/>
												<stop stop-color="#43D2FF" offset="1"/>
								</linearGradient>
								<linearGradient id="paint1_linear_213_110" x1="35.791" x2="188.84" y1="97.134" y2="239.1" gradientTransform="translate(3.5711 4.0422)" gradientUnits="userSpaceOnUse">
												<stop stop-color="#122CA5" offset="0"/>
												<stop stop-color="#12247F" offset="1"/>
								</linearGradient>
								<linearGradient id="paint2_linear_213_110" x1="25.342" x2="207.49" y1="42.918" y2="141.49" gradientTransform="translate(3.5711 4.0422)" gradientUnits="userSpaceOnUse">
												<stop stop-color="#1B05BE" offset="0"/>
												<stop stop-color="#438BFF" offset="1"/>
								</linearGradient>
				</defs>
				<path d="m301.07 210.87v-187.63h81.247c16.781 0 31.286 2.7495 43.421 8.1535 12.135 5.4041 21.521 13.273 28.157 23.418 6.636 10.144 9.954 22.28 9.954 36.217 0 13.937-3.318 26.262-9.954 36.312s-16.022 17.919-28.157 23.418c-12.135 5.498-26.64 8.343-43.421 8.343h-57.356l19.814-19.531v71.296zm43.705-66.555-19.814-20.669h54.986c13.178 0 23.227-2.844 30.053-8.532 6.826-5.689 10.144-13.747 10.144-24.082 0-10.334-3.413-18.393-10.144-23.986-6.826-5.5937-16.78-8.4379-30.053-8.4379h-54.986l19.814-20.668z" fill="#202632"/>
				<path d="m540.42 212.35c-12.135 0-22.848-2.275-32.139-6.921-9.291-4.645-16.496-11.756-21.71-21.426-5.214-9.671-7.774-21.806-7.774-36.407v-81.534h41.809v75.088c0 12.136 2.559 21.048 7.679 26.642 5.119 5.593 12.324 8.437 21.615 8.437 6.447 0 12.135-1.422 17.16-4.266s9.006-7.11 11.945-12.894c2.939-5.783 4.456-12.894 4.456-21.426v-71.58h41.524v144.2h-39.628v-39.915l7.205 11.757c-5.024 10.049-12.135 17.539-21.426 22.659-9.29 5.119-19.434 7.679-30.527 7.679z" fill="#202632"/>
				<path d="m649.09 210.56v-144.2h39.913v41.052l-5.594-12.04c4.266-10.144 11.187-17.919 20.667-23.228 9.481-5.3093 20.952-7.8691 34.604-7.8691v38.872c-1.612-0.379-3.128-0.664-4.645-0.759-1.517-0.189-3.034-0.284-4.456-0.284-11.756 0-21.142 3.318-28.157 9.955-7.016 6.636-10.429 16.781-10.429 30.528v68.072h-41.808z" fill="#202632"/>
				<path d="m818.93 211.93c-16.402 0-30.812-3.223-43.136-9.67-12.325-6.447-21.9-15.264-28.631-26.357-6.826-11.187-10.144-23.891-10.144-38.208 0-14.316 3.223-27.115 9.764-38.302 6.542-11.282 15.643-20.099 27.304-26.357 11.661-6.3521 24.839-9.4808 39.534-9.4808 14.694 0 26.829 3.0339 38.206 9.1016 11.376 6.0677 20.288 14.695 26.924 25.693 6.637 10.998 9.955 24.366 9.955 39.914 0 1.612 0 3.413-0.285 5.499-0.189 2.086-0.379 3.982-0.568 5.783h-117.08v-24.365h95.184l-16.307 7.205c0.19-7.49-1.232-14.031-4.266-19.53s-7.205-9.86-12.609-12.989c-5.404-3.1286-11.661-4.6456-18.771-4.6456s-13.462 1.6118-18.866 4.6456c-5.404 3.129-9.67 7.49-12.704 13.178-3.034 5.689-4.551 12.325-4.551 20.005v6.447c0 8.059 1.802 14.98 5.404 20.952 3.603 5.879 8.533 10.429 14.695 13.558 6.257 3.129 13.747 4.646 22.563 4.646 7.49 0 14.126-1.138 20.004-3.508 5.783-2.276 11.092-5.784 15.927-10.429l22.279 24.081c-6.636 7.49-14.884 13.273-24.933 17.255-10.05 3.982-21.521 6.068-34.604 6.068z" fill="#202632"/>
				<path d="m985.08 210.87-52.522-143.16h31.665l45.321 126.19h-15.268l47.208-126.19h28.16l46.08 126.19h-14.98l46.36-126.19h29.77l-52.81 143.16h-32.14l-41.52-111.78h9.67l-42.67 111.78h-32.135z" fill="#202632"/>
				<path d="m1224.9 212.67c-10.71 0-20.1-1.802-28.15-5.499-8.06-3.698-14.23-8.723-18.59-15.264-4.36-6.542-6.54-13.937-6.54-22.091 0-8.153 1.9-15.264 5.78-21.711 3.89-6.447 10.15-11.566 18.87-15.264 8.72-3.792 20.38-5.594 34.89-5.594h41.52v22.28h-39.15c-11.28 0-18.87 1.802-22.94 5.499-3.99 3.698-6.07 8.249-6.07 13.842 0 5.878 2.37 10.619 7.2 14.221 4.84 3.603 11.57 5.404 20.1 5.404 8.54 0 15.55-1.896 22.09-5.593 6.54-3.793 11.28-9.291 14.32-16.592l5.31 20.1c-3.23 8.438-8.91 14.885-17.16 19.53-8.25 4.646-18.77 6.921-31.67 6.921zm45.03-1.802v-29.201l-1.61-5.878v-50.627c0-9.86-3.03-17.445-9-22.944-5.98-5.404-15.08-8.1534-27.21-8.1534-7.87 0-15.65 1.2325-23.32 3.7923-7.68 2.4651-14.32 5.9731-19.82 10.429l-13.18-24.366c7.87-5.8781 17.07-10.334 27.59-13.368 10.52-3.0339 21.52-4.5508 32.99-4.5508 20.96 0 36.98 5.0248 48.26 14.98 11.28 10.05 16.87 25.409 16.87 46.077v83.905h-31.66z" fill="#202632"/>
				<path d="m1331.3 210.87v-198.91h33.28v198.91z" fill="#202632"/>
				<path d="m1395.4 210.87v-198.91h33.28v198.91z" fill="#202632"/>
				<path d="m1526.4 212.67c-15.93 0-29.77-3.129-41.71-9.481-11.85-6.352-21.05-14.98-27.59-25.978-6.54-10.997-9.77-23.607-9.77-37.923s3.13-26.925 9.48-37.923c6.36-10.998 15.08-19.625 26.26-25.977 11.19-6.3521 23.9-9.4808 38.21-9.4808 14.32 0 26.36 3.1287 37.26 9.2912s19.43 14.79 25.69 25.883c6.26 11.092 9.39 24.176 9.39 39.44 0 1.232 0 2.844-0.1 4.645 0 1.896-0.19 3.508-0.38 4.93h-119.26v-22.28h101.53l-13.36 6.921c0.19-8.058-1.52-15.264-4.93-21.616-3.51-6.352-8.25-11.282-14.32-14.695-6.07-3.5079-13.27-5.2145-21.42-5.2145-8.16 0-15.27 1.7066-21.62 5.2145-6.35 3.5081-11.19 8.4381-14.6 14.885s-5.12 13.842-5.12 22.28v5.404c0 8.532 1.9 16.212 5.78 22.754 3.89 6.541 9.29 11.756 16.5 15.453 7.11 3.698 15.45 5.499 24.93 5.499 8.06 0 15.27-1.327 21.71-3.982 6.45-2.654 12.14-6.636 17.16-11.756l18.21 20.953c-6.64 7.49-14.79 13.273-24.56 17.16-9.76 3.887-20.86 5.878-33.37 5.878z" fill="#202632"/>
				<path d="m1593.4 95.586v-26.831h95.37v26.831zm72.9 117.09c-15.74 0-27.87-4.077-36.4-12.23-8.54-8.154-12.9-20.1-12.9-35.743v-128.65h33.28v127.61c0 6.826 1.8 12.041 5.4 15.833 3.61 3.792 8.54 5.594 14.98 5.594 7.3 0 13.37-1.991 18.21-5.878l9.67 23.891c-4.08 3.224-9.01 5.594-14.79 7.206-5.69 1.612-11.57 2.37-17.45 2.37z" fill="#202632"/>
				<path d="m140.09 105.7-32.759 167.73c-1.318 6.589-5.0839 12.519-10.261 16.849-5.1776 4.33-11.673 6.965-18.263 6.965-47.822-0.094-80.017-36.991-74.651-83.96 0-0.47 0-0.941 0.18827-1.412 0.18828-2.07 0.56482-4.141 0.94137-6.212l1.7886-8.942c1.9769-6.306 4.9893-12.33 8.6606-18.072 32.854-50.451 124.45-73.041 124.45-73.041z" fill="url(#paint0_linear_213_110)"/>
				<path d="m140.09 105.69-15.532 79.725c-6.966-0.942-13.933-1.412-21.087-1.412-33.23 0-67.873 10.165-99.221 29.367-0.094137 0-0.28241 0.188-0.37655 0.188l0.56482-1.6 11.391-33.132c32.854-50.451 124.45-73.042 124.45-73.042z" fill="url(#paint1_linear_213_110)"/>
				<path d="m234.79 5.3567h-155.04c-19.486 0-38.314 15.813-42.174 35.297l-25.041 128.29-8.7548 44.615c35.96-28.614 79.264-44.615 121.06-44.615h77.946c19.486 0 38.408-15.814 42.174-35.297l18.168-92.997c3.766-19.484-8.943-35.297-28.429-35.297z" fill="url(#paint2_linear_213_110)"/>
</svg>
