<svg enable-background="new 0 0 70 70" version="1.1" viewBox="0 0 70 70" xmlns="http://www.w3.org/2000/svg">
	<style type="text/css">.st0{fill:#FFFFFF;}
	.st1{fill:#FF007A;}
	.st2{fill-rule:evenodd;clip-rule:evenodd;fill:#FF007A;}</style>
	<path class="st1" d="m6.07 1.83c-0.0469-0.03127 0.4831 0.6103 1.108 1.408 7.739 9.396 19.67 24.01 20.26 24.81 0.5003 0.6566 0.2973 1.299-0.5313 1.768-0.469 0.2658-1.424 0.5313-1.893 0.5313-0.5316 0-1.156-0.2646-1.594-0.7023-0.297-0.297-1.596-2.19-4.519-6.739-2.22-3.486-4.112-6.378-4.159-6.409-0.1251-0.06254-0.1254-0.06275 3.924 7.176 2.564 4.549 3.392 6.176 3.392 6.379 0 0.4377-0.125 0.6544-0.6565 1.264-0.8911 1.001-1.297 2.128-1.594 4.489-0.3283 2.626-1.235 4.488-3.783 7.646-1.501 1.86-1.719 2.187-2.095 2.953-0.469 0.9224-0.594 1.456-0.6565 2.66-0.06254 1.266 0.06144 2.064 0.4367 3.252 0.3283 1.063 0.7059 1.767 1.597 3.127 0.7661 1.188 1.234 2.093 1.234 2.421 0 0.2658 0.06339 0.2658 1.267 0 2.861-0.6566 5.222-1.796 6.504-3.188 0.7973-0.8599 0.9985-1.331 0.9985-2.519 0-0.7661-0.02883-0.9203-0.2321-1.389-0.3283-0.7348-0.9697-1.331-2.33-2.253-1.798-1.235-2.564-2.219-2.751-3.548-0.172-1.126 0.03151-1.89 1.032-3.985 1.032-2.157 1.297-3.051 1.453-5.255 0.0938-1.391 0.2657-1.953 0.6565-2.391 0.4378-0.469 0.7972-0.6257 1.829-0.7664 1.688-0.2345 2.783-0.655 3.658-1.499 0.7661-0.7035 1.092-1.393 1.124-2.424l0.03359-0.7664-0.4397-0.4702c-1.563-1.798-23.18-25.58-23.28-25.58zm22.12 14.42c-0.2418-0.0022-0.4513 0.0071-0.6076 0.03053-0.3439 0.0469-0.3127 0.07719 0.3908 0.171 2.548 0.4065 4.518 1.394 6.504 3.301 0.8911 0.8599 1.796 1.892 3.218 3.783 3.221 4.284 4.614 5.454 7.335 6.345 1.595 0.5315 3.219 0.7532 6.08 0.9252 3.158 0.1563 4.365 0.3882 5.49 1.154 0.6254 0.4221 1.094 0.9225 1.594 1.689l0.2962 0.4397-0.06107-0.5008c-0.2032-1.86-1.533-4.487-3.221-6.379l-0.2962-0.3298-0.174 0.7054c-0.4065 1.751-1.233 3.017-2.031 3.017-0.3596 0-0.7666-0.2335-0.8916-0.5618-0.172-0.4378-0.1711-0.5654 0.09466-1.066 0.4846-0.9068 0.5918-2.061 0.3573-3.625-0.06254-0.4221-0.1726-0.8596-0.2351-0.9222-0.172-0.2032-1.531-1.002-2.391-1.392-3.158-1.454-6.94-1.922-10.63-1.328l-0.8611 0.1252-0.5954-0.7054c-2.298-2.548-4.454-4.017-6.846-4.58-0.7739-0.1759-1.794-0.2896-2.519-0.2962zm25.41 0.9985c-0.03126 0-0.1711 0.2679-0.2962 0.5649-0.3596 0.7661-0.5298 1.595-0.5924 2.861-0.03127 0.8286-0.09515 1.094-0.2046 1.173-0.1407 0.03127-0.3424-0.0012-1.499-0.4702-0.7504-0.3283-2.722-0.89-2.785-0.8275-0.03127 0 0.3601 0.2021 0.8916 0.4367 0.5003 0.2345 1.359 0.674 1.86 0.971 2.032 1.173 2.36 1.859 2.36 4.751 0 1.438-0.02956 1.626-0.2015 2.064-0.2345 0.5628-0.2047 0.6713 0.06107 0.171 0.5003-0.9693 0.7046-1.892 0.7359-3.392 0-0.9693 0.04593-1.173 0.171-1.298 0.172-0.1563 0.2052-0.1556 0.4397-0.03054 0.3596 0.172 1.953 1.438 2.657 2.095l0.5618 0.5313-0.5618-0.7328c-0.3283-0.4065-1.189-1.362-1.924-2.128-1.595-1.626-1.686-1.812-1.921-3.313-0.172-1.157-0.1406-2.19 0.1252-2.925 0.0938-0.2658 0.1534-0.5008 0.1221-0.5008zm-26.29 0.516-0.06412 0.7054c-0.2032 2.236 0.7033 5.222 2.095 7.145 1.094 1.501 2.783 2.657 4.034 2.782 0.8286 0.06254 1.065-0.2043 0.7054-0.7359-0.5316-0.7348-1.159-1.891-1.331-2.391-0.1094-0.3127-0.3258-1.236-0.4977-2.034-0.5628-2.72-1.16-3.813-2.489-4.611-0.5003-0.297-1.531-0.7032-2.125-0.797zm14.85 12.43c0 1e-6 -0.03359 0.4693-0.03359 1.032 0 3.877 2.316 6.176 8.898 8.834 4.377 1.767 6.175 2.656 7.582 3.86 1.157 1.032 1.861 2.361 1.924 3.753 0 0.2658 0.06034 0.4367 0.09161 0.4367 0.172-0.03127 0.8312-1.562 1.066-2.391 0.2658-1.063 0.3735-3.096 0.2015-4.159-0.6097-3.69-3.097-6.409-7.115-7.738-1.266-0.4378-2.658-0.703-5.081-1.063-4.143-0.5941-5.642-1.065-6.971-2.128-0.297-0.2345-0.5306-0.4367-0.5618-0.4367zm-10.72 2.715c-0.2319 0.0031-0.4446 0.0287-0.6107 0.08244-0.7973 0.2345-1.564 1.094-1.799 1.954-0.1251 0.5316-0.06351 1.501 0.171 1.799 0.3596 0.469 0.7051 0.5954 1.628 0.5954 1.829 0 3.392-0.7987 3.548-1.768 0.172-0.7973-0.533-1.891-1.502-2.391-0.3332-0.172-0.9251-0.2785-1.435-0.2718zm0.2687 0.3695c0.3143-0.0061 0.6376 0.0684 0.9161 0.2443 0.5003 0.297 0.5956 0.7359 0.3298 1.127-0.1876 0.2658-0.7962 0.5313-1.218 0.5313-0.6566 0-1.362-0.4539-1.362-0.8916-2e-6 -0.5912 0.643-0.9973 1.334-1.011zm14.17 6 0.1741 0.4977c0.0938 0.2658 0.2642 0.8921 0.3267 1.392 0.5316 3.111-1.096 5.674-4.379 6.69-0.3283 0.1251-1.655 0.3922-2.953 0.5954-2.627 0.469-3.833 0.7655-4.989 1.328-0.8286 0.4065-1.858 1-1.795 1.063 0.0469 0.03127 0.2334-0.02907 0.4367-0.0916 1.485-0.5316 3.157-0.7971 5.643-0.9222 0.9849-0.07817 2.128-0.1733 2.519-0.2046 2.236-0.297 3.798-0.9543 4.986-2.189 0.6566-0.6879 1.064-1.329 1.392-2.22 0.2032-0.5628 0.2321-0.798 0.2321-1.799 0-1.032 0.0024-1.234-0.2321-1.86-0.297-0.8286-0.6279-1.423-1.066-1.924zm3.127 1.53c-0.07817 0-0.139 0.1578-0.2015 0.3298-0.469 1.688-0.2675 3.486 0.5924 5.377 0.469 0.9537 0.8911 1.656 2.736 4.33 1.532 2.298 2.3 3.659 2.66 4.785 0.5941 1.829 0.4981 3.457-0.2992 5.145-0.2032 0.4065-0.3431 0.7328-0.2962 0.7328 0.0469 0 0.3427-0.1235 0.7023-0.3267 2.423-1.298 4.081-3.549 4.815-6.379 0.2345-0.9068 0.346-3.066 0.174-3.957-0.2658-1.595-0.8456-2.89-1.768-4.015-1.063-1.298-2.594-2.439-5.283-3.893-2.126-1.157-2.971-1.627-3.362-1.893-0.2032-0.1407-0.4077-0.2351-0.4702-0.2351zm-32.76 7.622c0.2336-0.0012 0.4851 0.06058 0.6962 0.1954 0.6097 0.4065 0.7962 1.204 0.4367 1.829-0.3283 0.6097-0.9536 0.7997-1.438 0.4244-0.297-0.2189-0.2956-0.5469-0.06107-0.9222 0.2345-0.3752 0.2024-0.5334-0.09466-0.7054-0.2032-0.06254-0.2657-0.2017-0.2657-0.3267 0-0.3127 0.3374-0.4927 0.7267-0.4947zm18.26 4.147c-0.5835 3.65e-4 -1.142 0.03982-1.588 0.116-2.783 0.469-5.817 1.921-8.272 3.985l-0.7023 0.687 0.626 0.09466c3.314 0.5003 4.205 0.9699 6.535 3.362 1.329 1.36 1.797 1.657 2.892 1.954 1.626 0.4221 3.22-0.3446 3.783-1.799 0.2345-0.6566 0.2047-1.719-0.06107-2.25-0.6566-1.298-2.629-1.689-3.551-0.7664-0.7504 0.7661-0.5296 1.956 0.4397 2.159 0.2032 0.03126 0.2017 0.03041-0.06412-0.09466-0.4221-0.1876-0.626-0.4539-0.626-0.8916-0.03127-1.032 1.126-1.562 2.189-1.093 0.7973 0.3596 1.096 0.8271 1.096 1.624 0 1.235-1.064 2.206-2.299 2.034-0.6566-0.1094-1.455-0.5013-1.893-1.002-1.063-1.204-0.671-3.158 0.8611-3.893 1.173-0.5628 2.705-0.4057 3.893 0.3603 1.36 0.8911 1.97 1.687 3.127 4.376 0.3908 0.8911 0.8586 1.861 1.093 2.189 1.094 1.657 2.454 2.486 4.049 2.486 0.8911 0 1.565-0.1241 2.394-0.5618 0.5941-0.3127 1.485-0.9054 1.423-0.968 0-0.03127-0.2679 0.07719-0.5649 0.171-1.751 0.6723-3.548 0.6409-4.58-0.1252-0.6566-0.5003-1.188-1.438-1.453-2.626-0.03127-0.2032-0.2017-1.143-0.3267-2.034-0.3752-2.298-0.7355-3.331-1.533-4.519-0.8286-1.235-2.423-2.218-4.189-2.687-0.684-0.1856-1.724-0.2876-2.696-0.287z" stroke-width="1.563"/>
</svg>
